<mxfile host="Electron" agent="Mozilla/5.0 (Windows NT 10.0; Win64; x64) AppleWebKit/537.36 (KHTML, like Gecko) draw.io/27.0.2 Chrome/134.0.6998.205 Electron/35.3.0 Safari/537.36" version="27.0.2">
  <diagram name="Page-1" id="Yg1FZ_IFc7WMwTQpjkI-">
    <mxGraphModel dx="1961" dy="1637" grid="1" gridSize="10" guides="1" tooltips="1" connect="1" arrows="1" fold="1" page="1" pageScale="1" pageWidth="850" pageHeight="1100" math="0" shadow="0">
      <root>
        <Cell id="0" />
        <mxCell id="1" parent="0" />
        <mxCell id="elOo_HZCFg8z0Z6I5Kyt-1" value="Bank" style="whiteSpace=wrap;html=1;align=center;" parent="1" vertex="1">
          <mxGeometry x="325" y="120" width="100" height="40" as="geometry" />
        </mxCell>
        <mxCell id="elOo_HZCFg8z0Z6I5Kyt-3" value="Bank_Banches" style="whiteSpace=wrap;html=1;align=center;" parent="1" vertex="1">
          <mxGeometry x="60" y="120" width="100" height="40" as="geometry" />
        </mxCell>
        <mxCell id="elOo_HZCFg8z0Z6I5Kyt-4" value="Staff/personnel" style="whiteSpace=wrap;html=1;align=center;" parent="1" vertex="1">
          <mxGeometry x="620" y="115" width="130" height="45" as="geometry" />
        </mxCell>
        <mxCell id="elOo_HZCFg8z0Z6I5Kyt-5" value="Account" style="whiteSpace=wrap;html=1;align=center;" parent="1" vertex="1">
          <mxGeometry x="55" y="840" width="100" height="40" as="geometry" />
        </mxCell>
        <mxCell id="elOo_HZCFg8z0Z6I5Kyt-6" value="Customer" style="whiteSpace=wrap;html=1;align=center;" parent="1" vertex="1">
          <mxGeometry x="650" y="360" width="110" height="40" as="geometry" />
        </mxCell>
        <mxCell id="elOo_HZCFg8z0Z6I5Kyt-7" value="Transaction" style="whiteSpace=wrap;html=1;align=center;" parent="1" vertex="1">
          <mxGeometry x="30" y="360" width="100" height="40" as="geometry" />
        </mxCell>
        <mxCell id="elOo_HZCFg8z0Z6I5Kyt-8" value="Loan" style="whiteSpace=wrap;html=1;align=center;" parent="1" vertex="1">
          <mxGeometry x="330" y="360" width="100" height="40" as="geometry" />
        </mxCell>
        <mxCell id="elOo_HZCFg8z0Z6I5Kyt-9" value="Transfer" style="whiteSpace=wrap;html=1;align=center;" parent="1" vertex="1">
          <mxGeometry x="35" y="600" width="100" height="40" as="geometry" />
        </mxCell>
        <mxCell id="elOo_HZCFg8z0Z6I5Kyt-10" value="Withdraw" style="whiteSpace=wrap;html=1;align=center;" parent="1" vertex="1">
          <mxGeometry x="665" y="600" width="100" height="40" as="geometry" />
        </mxCell>
        <mxCell id="elOo_HZCFg8z0Z6I5Kyt-11" value="ATM" style="whiteSpace=wrap;html=1;align=center;" parent="1" vertex="1">
          <mxGeometry x="340" y="840" width="100" height="40" as="geometry" />
        </mxCell>
        <mxCell id="elOo_HZCFg8z0Z6I5Kyt-12" value="Deposit" style="whiteSpace=wrap;html=1;align=center;" parent="1" vertex="1">
          <mxGeometry x="670" y="840" width="100" height="40" as="geometry" />
        </mxCell>
        <mxCell id="elOo_HZCFg8z0Z6I5Kyt-15" value="Laon_Payment" style="whiteSpace=wrap;html=1;align=center;" parent="1" vertex="1">
          <mxGeometry x="328.51" y="600" width="100" height="40" as="geometry" />
        </mxCell>
        <mxCell id="elOo_HZCFg8z0Z6I5Kyt-16" value="Bank_ID_FK" style="ellipse;whiteSpace=wrap;html=1;align=center;rotation=0;verticalAlign=middle;" parent="1" vertex="1">
          <mxGeometry x="160" y="41.25" width="92.01" height="21.25" as="geometry" />
        </mxCell>
        <mxCell id="elOo_HZCFg8z0Z6I5Kyt-18" value="" style="endArrow=none;html=1;rounded=0;exitX=0.5;exitY=1;exitDx=0;exitDy=0;entryX=0.86;entryY=-0.025;entryDx=0;entryDy=0;entryPerimeter=0;" parent="1" source="elOo_HZCFg8z0Z6I5Kyt-16" target="elOo_HZCFg8z0Z6I5Kyt-3" edge="1">
          <mxGeometry relative="1" as="geometry">
            <mxPoint x="80" y="90" as="sourcePoint" />
            <mxPoint x="210" y="120" as="targetPoint" />
          </mxGeometry>
        </mxCell>
        <mxCell id="elOo_HZCFg8z0Z6I5Kyt-19" value="BranchName" style="ellipse;whiteSpace=wrap;html=1;align=center;rotation=0;" parent="1" vertex="1">
          <mxGeometry x="120" y="18.5" width="90" height="20" as="geometry" />
        </mxCell>
        <mxCell id="elOo_HZCFg8z0Z6I5Kyt-20" value="" style="endArrow=none;html=1;rounded=0;entryX=0.66;entryY=0.025;entryDx=0;entryDy=0;exitX=0.5;exitY=1;exitDx=0;exitDy=0;entryPerimeter=0;" parent="1" source="elOo_HZCFg8z0Z6I5Kyt-19" target="elOo_HZCFg8z0Z6I5Kyt-3" edge="1">
          <mxGeometry relative="1" as="geometry">
            <mxPoint x="90" y="80" as="sourcePoint" />
            <mxPoint x="250" y="80" as="targetPoint" />
          </mxGeometry>
        </mxCell>
        <mxCell id="elOo_HZCFg8z0Z6I5Kyt-21" value="Location" style="ellipse;whiteSpace=wrap;html=1;align=center;rotation=0;" parent="1" vertex="1">
          <mxGeometry x="65" y="2.5" width="90" height="15" as="geometry" />
        </mxCell>
        <mxCell id="elOo_HZCFg8z0Z6I5Kyt-22" value="" style="endArrow=none;html=1;rounded=0;exitX=0.5;exitY=1;exitDx=0;exitDy=0;entryX=0.5;entryY=0;entryDx=0;entryDy=0;" parent="1" source="elOo_HZCFg8z0Z6I5Kyt-21" target="elOo_HZCFg8z0Z6I5Kyt-3" edge="1">
          <mxGeometry relative="1" as="geometry">
            <mxPoint x="50" y="80" as="sourcePoint" />
            <mxPoint x="150" y="110" as="targetPoint" />
          </mxGeometry>
        </mxCell>
        <mxCell id="elOo_HZCFg8z0Z6I5Kyt-23" value="PhoneNumver" style="ellipse;whiteSpace=wrap;html=1;align=center;rotation=0;" parent="1" vertex="1">
          <mxGeometry y="17.5" width="102.01" height="17.5" as="geometry" />
        </mxCell>
        <mxCell id="elOo_HZCFg8z0Z6I5Kyt-24" value="" style="endArrow=none;html=1;rounded=0;exitX=0.5;exitY=1;exitDx=0;exitDy=0;entryX=0.25;entryY=0;entryDx=0;entryDy=0;" parent="1" source="elOo_HZCFg8z0Z6I5Kyt-23" target="elOo_HZCFg8z0Z6I5Kyt-3" edge="1">
          <mxGeometry relative="1" as="geometry">
            <mxPoint x="61" y="119" as="sourcePoint" />
            <mxPoint x="130" y="114" as="targetPoint" />
          </mxGeometry>
        </mxCell>
        <mxCell id="elOo_HZCFg8z0Z6I5Kyt-25" value="BankName" style="ellipse;whiteSpace=wrap;html=1;align=center;" parent="1" vertex="1">
          <mxGeometry x="320" y="35" width="80" height="25" as="geometry" />
        </mxCell>
        <mxCell id="elOo_HZCFg8z0Z6I5Kyt-26" value="BankID_PK" style="ellipse;whiteSpace=wrap;html=1;align=center;rotation=0;" parent="1" vertex="1">
          <mxGeometry x="270" y="60" width="90" height="20" as="geometry" />
        </mxCell>
        <mxCell id="elOo_HZCFg8z0Z6I5Kyt-27" value="Location" style="ellipse;whiteSpace=wrap;html=1;align=center;rotation=0;" parent="1" vertex="1">
          <mxGeometry x="385" y="21.25" width="80" height="21.25" as="geometry" />
        </mxCell>
        <mxCell id="elOo_HZCFg8z0Z6I5Kyt-28" value="PhoneNumber" style="ellipse;whiteSpace=wrap;html=1;align=center;rotation=0;" parent="1" vertex="1">
          <mxGeometry x="430" y="42.5" width="90" height="20" as="geometry" />
        </mxCell>
        <mxCell id="elOo_HZCFg8z0Z6I5Kyt-29" value="" style="endArrow=none;html=1;rounded=0;entryX=0.16;entryY=-0.025;entryDx=0;entryDy=0;entryPerimeter=0;exitX=0.5;exitY=1;exitDx=0;exitDy=0;" parent="1" source="elOo_HZCFg8z0Z6I5Kyt-26" target="elOo_HZCFg8z0Z6I5Kyt-1" edge="1">
          <mxGeometry relative="1" as="geometry">
            <mxPoint x="342" y="18" as="sourcePoint" />
            <mxPoint x="410" y="110" as="targetPoint" />
          </mxGeometry>
        </mxCell>
        <mxCell id="elOo_HZCFg8z0Z6I5Kyt-30" value="" style="endArrow=none;html=1;rounded=0;exitX=0.5;exitY=1;exitDx=0;exitDy=0;entryX=0.33;entryY=0;entryDx=0;entryDy=0;entryPerimeter=0;" parent="1" source="elOo_HZCFg8z0Z6I5Kyt-25" target="elOo_HZCFg8z0Z6I5Kyt-1" edge="1">
          <mxGeometry relative="1" as="geometry">
            <mxPoint x="420" y="80" as="sourcePoint" />
            <mxPoint x="410" y="120" as="targetPoint" />
          </mxGeometry>
        </mxCell>
        <mxCell id="elOo_HZCFg8z0Z6I5Kyt-33" value="" style="endArrow=none;html=1;rounded=0;entryX=0.448;entryY=1.078;entryDx=0;entryDy=0;entryPerimeter=0;exitX=0.67;exitY=-0.05;exitDx=0;exitDy=0;exitPerimeter=0;" parent="1" source="elOo_HZCFg8z0Z6I5Kyt-1" target="elOo_HZCFg8z0Z6I5Kyt-27" edge="1">
          <mxGeometry relative="1" as="geometry">
            <mxPoint x="420" y="120" as="sourcePoint" />
            <mxPoint x="590" y="120" as="targetPoint" />
          </mxGeometry>
        </mxCell>
        <mxCell id="elOo_HZCFg8z0Z6I5Kyt-35" value="" style="endArrow=none;html=1;rounded=0;entryX=0.5;entryY=1;entryDx=0;entryDy=0;exitX=0.86;exitY=-0.05;exitDx=0;exitDy=0;exitPerimeter=0;" parent="1" source="elOo_HZCFg8z0Z6I5Kyt-1" target="elOo_HZCFg8z0Z6I5Kyt-28" edge="1">
          <mxGeometry relative="1" as="geometry">
            <mxPoint x="410" y="120" as="sourcePoint" />
            <mxPoint x="600" y="110" as="targetPoint" />
          </mxGeometry>
        </mxCell>
        <mxCell id="elOo_HZCFg8z0Z6I5Kyt-48" value="st_FName" style="ellipse;whiteSpace=wrap;html=1;align=center;" parent="1" vertex="1">
          <mxGeometry x="590" y="32.5" width="90" height="25" as="geometry" />
        </mxCell>
        <mxCell id="elOo_HZCFg8z0Z6I5Kyt-49" value="st_Name" style="ellipse;whiteSpace=wrap;html=1;align=center;" parent="1" vertex="1">
          <mxGeometry x="535" y="57.5" width="90" height="20" as="geometry" />
        </mxCell>
        <mxCell id="elOo_HZCFg8z0Z6I5Kyt-50" value="st_Address" style="ellipse;whiteSpace=wrap;html=1;align=center;" parent="1" vertex="1">
          <mxGeometry x="680" y="-30" width="90" height="30" as="geometry" />
        </mxCell>
        <mxCell id="elOo_HZCFg8z0Z6I5Kyt-51" value="st_ID_PK" style="ellipse;whiteSpace=wrap;html=1;align=center;" parent="1" vertex="1">
          <mxGeometry x="510" y="86.25" width="90" height="20" as="geometry" />
        </mxCell>
        <mxCell id="elOo_HZCFg8z0Z6I5Kyt-52" value="st_DoB" style="ellipse;whiteSpace=wrap;html=1;align=center;" parent="1" vertex="1">
          <mxGeometry x="640" y="10" width="80" height="25" as="geometry" />
        </mxCell>
        <mxCell id="elOo_HZCFg8z0Z6I5Kyt-53" value="st_Position" style="ellipse;whiteSpace=wrap;html=1;align=center;" parent="1" vertex="1">
          <mxGeometry x="740" y="-2.5" width="90" height="25" as="geometry" />
        </mxCell>
        <mxCell id="elOo_HZCFg8z0Z6I5Kyt-54" value="st_&lt;span style=&quot;background-color: transparent; color: light-dark(rgb(0, 0, 0), rgb(255, 255, 255));&quot;&gt;NID&lt;/span&gt;" style="ellipse;whiteSpace=wrap;html=1;align=center;" parent="1" vertex="1">
          <mxGeometry x="790" y="23.75" width="100" height="20" as="geometry" />
        </mxCell>
        <mxCell id="elOo_HZCFg8z0Z6I5Kyt-55" value="st_Gender" style="ellipse;whiteSpace=wrap;html=1;align=center;" parent="1" vertex="1">
          <mxGeometry x="825" y="43.75" width="90" height="20" as="geometry" />
        </mxCell>
        <mxCell id="elOo_HZCFg8z0Z6I5Kyt-56" value="st_PhoneNum" style="ellipse;whiteSpace=wrap;html=1;align=center;" parent="1" vertex="1">
          <mxGeometry x="850" y="86.25" width="100" height="20" as="geometry" />
        </mxCell>
        <mxCell id="elOo_HZCFg8z0Z6I5Kyt-57" value="st_Email" style="ellipse;whiteSpace=wrap;html=1;align=center;" parent="1" vertex="1">
          <mxGeometry x="850" y="66.25" width="90" height="20" as="geometry" />
        </mxCell>
        <mxCell id="elOo_HZCFg8z0Z6I5Kyt-58" value="st_Salary" style="ellipse;whiteSpace=wrap;html=1;align=center;" parent="1" vertex="1">
          <mxGeometry x="860" y="106.25" width="90" height="20" as="geometry" />
        </mxCell>
        <mxCell id="elOo_HZCFg8z0Z6I5Kyt-59" value="branch_ID_FK" style="ellipse;whiteSpace=wrap;html=1;align=center;" parent="1" vertex="1">
          <mxGeometry x="860" y="130" width="100" height="20" as="geometry" />
        </mxCell>
        <mxCell id="elOo_HZCFg8z0Z6I5Kyt-60" value="st_Hire_Date" style="ellipse;whiteSpace=wrap;html=1;align=center;" parent="1" vertex="1">
          <mxGeometry x="860" y="150" width="100" height="20" as="geometry" />
        </mxCell>
        <mxCell id="elOo_HZCFg8z0Z6I5Kyt-62" value="Status" style="ellipse;whiteSpace=wrap;html=1;align=center;" parent="1" vertex="1">
          <mxGeometry x="860" y="170" width="100" height="20" as="geometry" />
        </mxCell>
        <mxCell id="elOo_HZCFg8z0Z6I5Kyt-63" value="" style="endArrow=none;html=1;rounded=0;exitX=0.5;exitY=1;exitDx=0;exitDy=0;entryX=0.092;entryY=0;entryDx=0;entryDy=0;entryPerimeter=0;" parent="1" source="elOo_HZCFg8z0Z6I5Kyt-51" target="elOo_HZCFg8z0Z6I5Kyt-4" edge="1">
          <mxGeometry relative="1" as="geometry">
            <mxPoint x="560" y="120" as="sourcePoint" />
            <mxPoint x="640" y="158" as="targetPoint" />
          </mxGeometry>
        </mxCell>
        <mxCell id="elOo_HZCFg8z0Z6I5Kyt-65" value="" style="endArrow=none;html=1;rounded=0;exitX=0.656;exitY=0.975;exitDx=0;exitDy=0;exitPerimeter=0;entryX=0.25;entryY=0;entryDx=0;entryDy=0;" parent="1" source="elOo_HZCFg8z0Z6I5Kyt-49" target="elOo_HZCFg8z0Z6I5Kyt-4" edge="1">
          <mxGeometry relative="1" as="geometry">
            <mxPoint x="620" y="100" as="sourcePoint" />
            <mxPoint x="780" y="100" as="targetPoint" />
          </mxGeometry>
        </mxCell>
        <mxCell id="elOo_HZCFg8z0Z6I5Kyt-66" value="" style="endArrow=none;html=1;rounded=0;exitX=0.622;exitY=1.04;exitDx=0;exitDy=0;exitPerimeter=0;entryX=0.42;entryY=0;entryDx=0;entryDy=0;entryPerimeter=0;" parent="1" source="elOo_HZCFg8z0Z6I5Kyt-48" target="elOo_HZCFg8z0Z6I5Kyt-4" edge="1">
          <mxGeometry relative="1" as="geometry">
            <mxPoint x="660" y="100" as="sourcePoint" />
            <mxPoint x="820" y="100" as="targetPoint" />
          </mxGeometry>
        </mxCell>
        <mxCell id="elOo_HZCFg8z0Z6I5Kyt-67" value="" style="endArrow=none;html=1;rounded=0;exitX=0.5;exitY=1;exitDx=0;exitDy=0;entryX=0.6;entryY=0.022;entryDx=0;entryDy=0;entryPerimeter=0;" parent="1" source="elOo_HZCFg8z0Z6I5Kyt-50" target="elOo_HZCFg8z0Z6I5Kyt-4" edge="1">
          <mxGeometry relative="1" as="geometry">
            <mxPoint x="690" y="100" as="sourcePoint" />
            <mxPoint x="700" y="110" as="targetPoint" />
          </mxGeometry>
        </mxCell>
        <mxCell id="elOo_HZCFg8z0Z6I5Kyt-69" value="" style="endArrow=none;html=1;rounded=0;exitX=0.5;exitY=0;exitDx=0;exitDy=0;" parent="1" source="elOo_HZCFg8z0Z6I5Kyt-4" target="elOo_HZCFg8z0Z6I5Kyt-52" edge="1">
          <mxGeometry relative="1" as="geometry">
            <mxPoint x="685" y="150" as="sourcePoint" />
            <mxPoint x="760" y="30" as="targetPoint" />
          </mxGeometry>
        </mxCell>
        <mxCell id="elOo_HZCFg8z0Z6I5Kyt-70" value="" style="endArrow=none;html=1;rounded=0;entryX=0.256;entryY=0.96;entryDx=0;entryDy=0;entryPerimeter=0;" parent="1" target="elOo_HZCFg8z0Z6I5Kyt-53" edge="1">
          <mxGeometry relative="1" as="geometry">
            <mxPoint x="720" y="114" as="sourcePoint" />
            <mxPoint x="900" y="130" as="targetPoint" />
          </mxGeometry>
        </mxCell>
        <mxCell id="elOo_HZCFg8z0Z6I5Kyt-71" value="" style="endArrow=none;html=1;rounded=0;exitX=0.94;exitY=0;exitDx=0;exitDy=0;exitPerimeter=0;entryX=0.26;entryY=0.9;entryDx=0;entryDy=0;entryPerimeter=0;" parent="1" source="elOo_HZCFg8z0Z6I5Kyt-4" target="elOo_HZCFg8z0Z6I5Kyt-54" edge="1">
          <mxGeometry relative="1" as="geometry">
            <mxPoint x="750" y="140" as="sourcePoint" />
            <mxPoint x="840" y="80" as="targetPoint" />
          </mxGeometry>
        </mxCell>
        <mxCell id="elOo_HZCFg8z0Z6I5Kyt-72" value="" style="endArrow=none;html=1;rounded=0;exitX=1;exitY=0.25;exitDx=0;exitDy=0;entryX=0;entryY=1;entryDx=0;entryDy=0;" parent="1" source="elOo_HZCFg8z0Z6I5Kyt-4" target="elOo_HZCFg8z0Z6I5Kyt-55" edge="1">
          <mxGeometry relative="1" as="geometry">
            <mxPoint x="760" y="150" as="sourcePoint" />
            <mxPoint x="873" y="90" as="targetPoint" />
          </mxGeometry>
        </mxCell>
        <mxCell id="elOo_HZCFg8z0Z6I5Kyt-75" value="" style="endArrow=none;html=1;rounded=0;entryX=0;entryY=0.5;entryDx=0;entryDy=0;" parent="1" target="elOo_HZCFg8z0Z6I5Kyt-57" edge="1">
          <mxGeometry relative="1" as="geometry">
            <mxPoint x="750" y="130" as="sourcePoint" />
            <mxPoint x="900" y="220" as="targetPoint" />
          </mxGeometry>
        </mxCell>
        <mxCell id="elOo_HZCFg8z0Z6I5Kyt-76" value="" style="endArrow=none;html=1;rounded=0;entryX=0.08;entryY=0.85;entryDx=0;entryDy=0;entryPerimeter=0;exitX=1;exitY=0.5;exitDx=0;exitDy=0;" parent="1" source="elOo_HZCFg8z0Z6I5Kyt-4" target="elOo_HZCFg8z0Z6I5Kyt-56" edge="1">
          <mxGeometry relative="1" as="geometry">
            <mxPoint x="750" y="185" as="sourcePoint" />
            <mxPoint x="890" y="190" as="targetPoint" />
          </mxGeometry>
        </mxCell>
        <mxCell id="elOo_HZCFg8z0Z6I5Kyt-77" value="" style="endArrow=none;html=1;rounded=0;entryX=0.078;entryY=0.8;entryDx=0;entryDy=0;exitX=1;exitY=0.75;exitDx=0;exitDy=0;exitPerimeter=0;entryPerimeter=0;" parent="1" source="elOo_HZCFg8z0Z6I5Kyt-4" target="elOo_HZCFg8z0Z6I5Kyt-58" edge="1">
          <mxGeometry relative="1" as="geometry">
            <mxPoint x="730" y="180" as="sourcePoint" />
            <mxPoint x="890" y="190" as="targetPoint" />
          </mxGeometry>
        </mxCell>
        <mxCell id="elOo_HZCFg8z0Z6I5Kyt-79" value="" style="endArrow=none;html=1;rounded=0;entryX=0;entryY=1;entryDx=0;entryDy=0;exitX=1;exitY=0.5;exitDx=0;exitDy=0;" parent="1" source="elOo_HZCFg8z0Z6I5Kyt-4" target="elOo_HZCFg8z0Z6I5Kyt-59" edge="1">
          <mxGeometry relative="1" as="geometry">
            <mxPoint x="750" y="198" as="sourcePoint" />
            <mxPoint x="910" y="200" as="targetPoint" />
          </mxGeometry>
        </mxCell>
        <mxCell id="elOo_HZCFg8z0Z6I5Kyt-80" value="" style="endArrow=none;html=1;rounded=0;entryX=0;entryY=0.5;entryDx=0;entryDy=0;exitX=1;exitY=0.75;exitDx=0;exitDy=0;" parent="1" source="elOo_HZCFg8z0Z6I5Kyt-4" target="elOo_HZCFg8z0Z6I5Kyt-60" edge="1">
          <mxGeometry relative="1" as="geometry">
            <mxPoint x="760" y="220" as="sourcePoint" />
            <mxPoint x="920" y="220" as="targetPoint" />
          </mxGeometry>
        </mxCell>
        <mxCell id="elOo_HZCFg8z0Z6I5Kyt-84" value="Branch_ID" style="ellipse;whiteSpace=wrap;html=1;align=center;" parent="1" vertex="1">
          <mxGeometry x="-30" y="38.49999999999999" width="90" height="19" as="geometry" />
        </mxCell>
        <mxCell id="elOo_HZCFg8z0Z6I5Kyt-85" value="" style="endArrow=none;html=1;rounded=0;exitX=0.5;exitY=1;exitDx=0;exitDy=0;entryX=0.1;entryY=0.025;entryDx=0;entryDy=0;entryPerimeter=0;" parent="1" source="elOo_HZCFg8z0Z6I5Kyt-84" target="elOo_HZCFg8z0Z6I5Kyt-3" edge="1">
          <mxGeometry relative="1" as="geometry">
            <mxPoint x="10" y="120" as="sourcePoint" />
            <mxPoint x="120" y="130" as="targetPoint" />
          </mxGeometry>
        </mxCell>
        <mxCell id="elOo_HZCFg8z0Z6I5Kyt-89" value="st_LName" style="ellipse;whiteSpace=wrap;html=1;align=center;" parent="1" vertex="1">
          <mxGeometry x="550" width="90" height="20" as="geometry" />
        </mxCell>
        <mxCell id="elOo_HZCFg8z0Z6I5Kyt-90" value="st_FName" style="ellipse;whiteSpace=wrap;html=1;align=center;" parent="1" vertex="1">
          <mxGeometry x="500" y="-20" width="90" height="20" as="geometry" />
        </mxCell>
        <mxCell id="elOo_HZCFg8z0Z6I5Kyt-91" value="" style="endArrow=none;html=1;rounded=0;exitX=0.433;exitY=1.05;exitDx=0;exitDy=0;exitPerimeter=0;entryX=0;entryY=0;entryDx=0;entryDy=0;" parent="1" source="elOo_HZCFg8z0Z6I5Kyt-90" target="elOo_HZCFg8z0Z6I5Kyt-49" edge="1">
          <mxGeometry relative="1" as="geometry">
            <mxPoint x="510" y="20" as="sourcePoint" />
            <mxPoint x="545" y="70" as="targetPoint" />
          </mxGeometry>
        </mxCell>
        <mxCell id="elOo_HZCFg8z0Z6I5Kyt-92" value="" style="endArrow=none;html=1;rounded=0;entryX=0.311;entryY=1;entryDx=0;entryDy=0;entryPerimeter=0;exitX=0.333;exitY=0.125;exitDx=0;exitDy=0;exitPerimeter=0;" parent="1" source="elOo_HZCFg8z0Z6I5Kyt-49" target="elOo_HZCFg8z0Z6I5Kyt-89" edge="1">
          <mxGeometry relative="1" as="geometry">
            <mxPoint x="558" y="60" as="sourcePoint" />
            <mxPoint x="660" y="30" as="targetPoint" />
          </mxGeometry>
        </mxCell>
        <mxCell id="elOo_HZCFg8z0Z6I5Kyt-94" value="trans_Amount" style="ellipse;whiteSpace=wrap;html=1;align=center;" parent="1" vertex="1">
          <mxGeometry x="-100" y="320" width="90" height="20" as="geometry" />
        </mxCell>
        <mxCell id="elOo_HZCFg8z0Z6I5Kyt-95" value="trans_ID" style="ellipse;whiteSpace=wrap;html=1;align=center;" parent="1" vertex="1">
          <mxGeometry x="-100" y="345" width="90" height="20" as="geometry" />
        </mxCell>
        <mxCell id="fKfA4gt4jQPloBtkc1-s-1" value="trans_Balance" style="ellipse;whiteSpace=wrap;html=1;align=center;" parent="1" vertex="1">
          <mxGeometry x="-95" y="390" width="90" height="20" as="geometry" />
        </mxCell>
        <mxCell id="fKfA4gt4jQPloBtkc1-s-2" value="trans_Date" style="ellipse;whiteSpace=wrap;html=1;align=center;" parent="1" vertex="1">
          <mxGeometry x="-95" y="410" width="90" height="20" as="geometry" />
        </mxCell>
        <mxCell id="fKfA4gt4jQPloBtkc1-s-3" value="trans_Type" style="ellipse;whiteSpace=wrap;html=1;align=center;" parent="1" vertex="1">
          <mxGeometry x="-100" y="370" width="95" height="20" as="geometry" />
        </mxCell>
        <mxCell id="fKfA4gt4jQPloBtkc1-s-4" value="currency" style="ellipse;whiteSpace=wrap;html=1;align=center;" parent="1" vertex="1">
          <mxGeometry x="-95" y="430" width="80" height="20" as="geometry" />
        </mxCell>
        <mxCell id="fKfA4gt4jQPloBtkc1-s-5" value="transfer_ID" style="ellipse;whiteSpace=wrap;html=1;align=center;" parent="1" vertex="1">
          <mxGeometry x="-136" y="670" width="86" height="20" as="geometry" />
        </mxCell>
        <mxCell id="fKfA4gt4jQPloBtkc1-s-6" value="sen_acc" style="ellipse;whiteSpace=wrap;html=1;align=center;" parent="1" vertex="1">
          <mxGeometry x="-132.5" y="570" width="85" height="20" as="geometry" />
        </mxCell>
        <mxCell id="fKfA4gt4jQPloBtkc1-s-7" value="reciver_Acc" style="ellipse;whiteSpace=wrap;html=1;align=center;" parent="1" vertex="1">
          <mxGeometry x="-132" y="650" width="85" height="20" as="geometry" />
        </mxCell>
        <mxCell id="fKfA4gt4jQPloBtkc1-s-8" value="tr_amount" style="ellipse;whiteSpace=wrap;html=1;align=center;" parent="1" vertex="1">
          <mxGeometry x="-135" y="610" width="88" height="20" as="geometry" />
        </mxCell>
        <mxCell id="fKfA4gt4jQPloBtkc1-s-9" value="tr_date" style="ellipse;whiteSpace=wrap;html=1;align=center;" parent="1" vertex="1">
          <mxGeometry x="-135" y="590" width="85" height="20" as="geometry" />
        </mxCell>
        <mxCell id="fKfA4gt4jQPloBtkc1-s-11" value="re_date" style="ellipse;whiteSpace=wrap;html=1;align=center;" parent="1" vertex="1">
          <mxGeometry x="-138" y="690" width="90" height="20" as="geometry" />
        </mxCell>
        <mxCell id="fKfA4gt4jQPloBtkc1-s-12" value="sen_name" style="ellipse;whiteSpace=wrap;html=1;align=center;" parent="1" vertex="1">
          <mxGeometry x="-135" y="550" width="90" height="20" as="geometry" />
        </mxCell>
        <mxCell id="fKfA4gt4jQPloBtkc1-s-13" value="re_name" style="ellipse;whiteSpace=wrap;html=1;align=center;" parent="1" vertex="1">
          <mxGeometry x="-135" y="630" width="90" height="20" as="geometry" />
        </mxCell>
        <mxCell id="fKfA4gt4jQPloBtkc1-s-14" value="tr_currency" style="ellipse;whiteSpace=wrap;html=1;align=center;" parent="1" vertex="1">
          <mxGeometry x="-135" y="530" width="90" height="20" as="geometry" />
        </mxCell>
        <mxCell id="fKfA4gt4jQPloBtkc1-s-17" value="acc_ID" style="ellipse;whiteSpace=wrap;html=1;align=center;" parent="1" vertex="1">
          <mxGeometry x="-133.5" y="890" width="85" height="20" as="geometry" />
        </mxCell>
        <mxCell id="fKfA4gt4jQPloBtkc1-s-18" value="acc_Balance" style="ellipse;whiteSpace=wrap;html=1;align=center;" parent="1" vertex="1">
          <mxGeometry x="-140" y="870" width="90" height="20" as="geometry" />
        </mxCell>
        <mxCell id="fKfA4gt4jQPloBtkc1-s-19" value="acc_type" style="ellipse;whiteSpace=wrap;html=1;align=center;" parent="1" vertex="1">
          <mxGeometry x="-128.5" y="850" width="80" height="20" as="geometry" />
        </mxCell>
        <mxCell id="fKfA4gt4jQPloBtkc1-s-20" value="acc_status" style="ellipse;whiteSpace=wrap;html=1;align=center;" parent="1" vertex="1">
          <mxGeometry x="-136" y="830" width="85" height="20" as="geometry" />
        </mxCell>
        <mxCell id="fKfA4gt4jQPloBtkc1-s-21" value="accDateOpen" style="ellipse;whiteSpace=wrap;html=1;align=center;" parent="1" vertex="1">
          <mxGeometry x="-138" y="810" width="90" height="20" as="geometry" />
        </mxCell>
        <mxCell id="fKfA4gt4jQPloBtkc1-s-22" value="accDateClose" style="ellipse;whiteSpace=wrap;html=1;align=center;" parent="1" vertex="1">
          <mxGeometry x="-140" y="790" width="90" height="20" as="geometry" />
        </mxCell>
        <mxCell id="fKfA4gt4jQPloBtkc1-s-23" value="Cu_FName" style="ellipse;whiteSpace=wrap;html=1;align=center;" parent="1" vertex="1">
          <mxGeometry x="890" y="320" width="100" height="20" as="geometry" />
        </mxCell>
        <mxCell id="fKfA4gt4jQPloBtkc1-s-24" value="Cu_DoB" style="ellipse;whiteSpace=wrap;html=1;align=center;" parent="1" vertex="1">
          <mxGeometry x="920" y="365" width="95" height="15" as="geometry" />
        </mxCell>
        <mxCell id="fKfA4gt4jQPloBtkc1-s-25" value="Cu_name" style="ellipse;whiteSpace=wrap;html=1;align=center;" parent="1" vertex="1">
          <mxGeometry x="840" y="300" width="100" height="20" as="geometry" />
        </mxCell>
        <mxCell id="fKfA4gt4jQPloBtkc1-s-26" value="CuBranchID_FK" style="ellipse;whiteSpace=wrap;html=1;align=center;" parent="1" vertex="1">
          <mxGeometry x="925" y="420" width="100" height="20" as="geometry" />
        </mxCell>
        <mxCell id="fKfA4gt4jQPloBtkc1-s-27" value="Cu_ID" style="ellipse;whiteSpace=wrap;html=1;align=center;" parent="1" vertex="1">
          <mxGeometry x="820" y="280" width="100" height="20" as="geometry" />
        </mxCell>
        <mxCell id="fKfA4gt4jQPloBtkc1-s-28" value="Status" style="ellipse;whiteSpace=wrap;html=1;align=center;" parent="1" vertex="1">
          <mxGeometry x="900" y="440" width="80" height="20" as="geometry" />
        </mxCell>
        <mxCell id="fKfA4gt4jQPloBtkc1-s-29" value="Cu_Address" style="ellipse;whiteSpace=wrap;html=1;align=center;" parent="1" vertex="1">
          <mxGeometry x="920" y="340" width="90" height="20" as="geometry" />
        </mxCell>
        <mxCell id="fKfA4gt4jQPloBtkc1-s-30" value="Cu_NID" style="ellipse;whiteSpace=wrap;html=1;align=center;" parent="1" vertex="1">
          <mxGeometry x="840" y="480" width="95" height="20" as="geometry" />
        </mxCell>
        <mxCell id="fKfA4gt4jQPloBtkc1-s-31" value="Cu_gender" style="ellipse;whiteSpace=wrap;html=1;align=center;" parent="1" vertex="1">
          <mxGeometry x="920" y="380" width="100" height="20" as="geometry" />
        </mxCell>
        <mxCell id="fKfA4gt4jQPloBtkc1-s-32" value="Cu_Email" style="ellipse;whiteSpace=wrap;html=1;align=center;" parent="1" vertex="1">
          <mxGeometry x="925" y="400" width="100" height="20" as="geometry" />
        </mxCell>
        <mxCell id="fKfA4gt4jQPloBtkc1-s-33" value="Cu_phoneNnm" style="ellipse;whiteSpace=wrap;html=1;align=center;" parent="1" vertex="1">
          <mxGeometry x="865" y="460" width="100" height="20" as="geometry" />
        </mxCell>
        <mxCell id="fKfA4gt4jQPloBtkc1-s-36" value="" style="endArrow=none;html=1;rounded=0;entryX=0.05;entryY=0.5;entryDx=0;entryDy=0;entryPerimeter=0;exitX=1;exitY=1;exitDx=0;exitDy=0;" parent="1" source="elOo_HZCFg8z0Z6I5Kyt-4" target="elOo_HZCFg8z0Z6I5Kyt-62" edge="1">
          <mxGeometry relative="1" as="geometry">
            <mxPoint x="750" y="190" as="sourcePoint" />
            <mxPoint x="860" y="200" as="targetPoint" />
          </mxGeometry>
        </mxCell>
        <mxCell id="fKfA4gt4jQPloBtkc1-s-37" value="st_streatNo" style="ellipse;whiteSpace=wrap;html=1;align=center;" parent="1" vertex="1">
          <mxGeometry x="800" y="-80" width="90" height="20" as="geometry" />
        </mxCell>
        <mxCell id="fKfA4gt4jQPloBtkc1-s-38" value="st_sity" style="ellipse;whiteSpace=wrap;html=1;align=center;" parent="1" vertex="1">
          <mxGeometry x="625" y="-80" width="85" height="20" as="geometry" />
        </mxCell>
        <mxCell id="fKfA4gt4jQPloBtkc1-s-39" value="st_homeNo" style="ellipse;whiteSpace=wrap;html=1;align=center;" parent="1" vertex="1">
          <mxGeometry x="710" y="-120" width="90" height="20" as="geometry" />
        </mxCell>
        <mxCell id="fKfA4gt4jQPloBtkc1-s-40" value="st_area" style="ellipse;whiteSpace=wrap;html=1;align=center;" parent="1" vertex="1">
          <mxGeometry x="575" y="-60" width="85" height="20" as="geometry" />
        </mxCell>
        <mxCell id="fKfA4gt4jQPloBtkc1-s-41" value="st_current_loc" style="ellipse;whiteSpace=wrap;html=1;align=center;" parent="1" vertex="1">
          <mxGeometry x="650" y="-100" width="100" height="20" as="geometry" />
        </mxCell>
        <mxCell id="fKfA4gt4jQPloBtkc1-s-42" value="st_main_sett" style="ellipse;whiteSpace=wrap;html=1;align=center;" parent="1" vertex="1">
          <mxGeometry x="760" y="-100" width="100" height="20" as="geometry" />
        </mxCell>
        <mxCell id="fKfA4gt4jQPloBtkc1-s-46" value="" style="endArrow=none;html=1;rounded=0;exitX=0.741;exitY=1;exitDx=0;exitDy=0;exitPerimeter=0;entryX=0.056;entryY=0.267;entryDx=0;entryDy=0;entryPerimeter=0;" parent="1" source="fKfA4gt4jQPloBtkc1-s-40" target="elOo_HZCFg8z0Z6I5Kyt-50" edge="1">
          <mxGeometry relative="1" as="geometry">
            <mxPoint x="680" y="-40" as="sourcePoint" />
            <mxPoint x="840" y="-40" as="targetPoint" />
          </mxGeometry>
        </mxCell>
        <mxCell id="fKfA4gt4jQPloBtkc1-s-47" value="" style="endArrow=none;html=1;rounded=0;exitX=0.5;exitY=1;exitDx=0;exitDy=0;entryX=0.233;entryY=0;entryDx=0;entryDy=0;entryPerimeter=0;" parent="1" source="fKfA4gt4jQPloBtkc1-s-38" target="elOo_HZCFg8z0Z6I5Kyt-50" edge="1">
          <mxGeometry relative="1" as="geometry">
            <mxPoint x="700" y="-40" as="sourcePoint" />
            <mxPoint x="705" y="2" as="targetPoint" />
          </mxGeometry>
        </mxCell>
        <mxCell id="fKfA4gt4jQPloBtkc1-s-48" value="" style="endArrow=none;html=1;rounded=0;exitX=0.64;exitY=1.1;exitDx=0;exitDy=0;exitPerimeter=0;entryX=0.411;entryY=0.067;entryDx=0;entryDy=0;entryPerimeter=0;" parent="1" source="fKfA4gt4jQPloBtkc1-s-41" target="elOo_HZCFg8z0Z6I5Kyt-50" edge="1">
          <mxGeometry relative="1" as="geometry">
            <mxPoint x="740" y="-40" as="sourcePoint" />
            <mxPoint x="722" y="-10" as="targetPoint" />
          </mxGeometry>
        </mxCell>
        <mxCell id="fKfA4gt4jQPloBtkc1-s-49" value="" style="endArrow=none;html=1;rounded=0;exitX=0.5;exitY=1;exitDx=0;exitDy=0;entryX=0.589;entryY=0.033;entryDx=0;entryDy=0;entryPerimeter=0;" parent="1" source="fKfA4gt4jQPloBtkc1-s-39" target="elOo_HZCFg8z0Z6I5Kyt-50" edge="1">
          <mxGeometry relative="1" as="geometry">
            <mxPoint x="740" y="-40" as="sourcePoint" />
            <mxPoint x="900" y="-40" as="targetPoint" />
          </mxGeometry>
        </mxCell>
        <mxCell id="fKfA4gt4jQPloBtkc1-s-50" value="" style="endArrow=none;html=1;rounded=0;exitX=0;exitY=1;exitDx=0;exitDy=0;entryX=0.733;entryY=-0.033;entryDx=0;entryDy=0;entryPerimeter=0;" parent="1" source="fKfA4gt4jQPloBtkc1-s-42" target="elOo_HZCFg8z0Z6I5Kyt-50" edge="1">
          <mxGeometry relative="1" as="geometry">
            <mxPoint x="790" y="-30" as="sourcePoint" />
            <mxPoint x="950" y="-30" as="targetPoint" />
          </mxGeometry>
        </mxCell>
        <mxCell id="fKfA4gt4jQPloBtkc1-s-51" value="" style="endArrow=none;html=1;rounded=0;exitX=0;exitY=1;exitDx=0;exitDy=0;entryX=1;entryY=0;entryDx=0;entryDy=0;" parent="1" source="fKfA4gt4jQPloBtkc1-s-37" target="elOo_HZCFg8z0Z6I5Kyt-50" edge="1">
          <mxGeometry relative="1" as="geometry">
            <mxPoint x="810" y="-40" as="sourcePoint" />
            <mxPoint x="970" y="-40" as="targetPoint" />
          </mxGeometry>
        </mxCell>
        <mxCell id="fKfA4gt4jQPloBtkc1-s-56" value="dolor" style="ellipse;whiteSpace=wrap;html=1;align=center;" parent="1" vertex="1">
          <mxGeometry x="-240" y="410" width="70" height="20" as="geometry" />
        </mxCell>
        <mxCell id="fKfA4gt4jQPloBtkc1-s-57" value="pound" style="ellipse;whiteSpace=wrap;html=1;align=center;" parent="1" vertex="1">
          <mxGeometry x="-240" y="450" width="70" height="20" as="geometry" />
        </mxCell>
        <mxCell id="fKfA4gt4jQPloBtkc1-s-58" value="euro" style="ellipse;whiteSpace=wrap;html=1;align=center;" parent="1" vertex="1">
          <mxGeometry x="-240" y="470" width="70" height="20" as="geometry" />
        </mxCell>
        <mxCell id="fKfA4gt4jQPloBtkc1-s-59" value="afghani" style="ellipse;whiteSpace=wrap;html=1;align=center;" parent="1" vertex="1">
          <mxGeometry x="-240" y="390" width="70" height="20" as="geometry" />
        </mxCell>
        <mxCell id="fKfA4gt4jQPloBtkc1-s-64" value="" style="endArrow=none;html=1;rounded=0;exitX=1;exitY=0.5;exitDx=0;exitDy=0;" parent="1" source="fKfA4gt4jQPloBtkc1-s-58" edge="1">
          <mxGeometry relative="1" as="geometry">
            <mxPoint x="-170" y="490" as="sourcePoint" />
            <mxPoint x="-59" y="450" as="targetPoint" />
          </mxGeometry>
        </mxCell>
        <mxCell id="fKfA4gt4jQPloBtkc1-s-66" value="" style="endArrow=none;html=1;rounded=0;exitX=1;exitY=0.5;exitDx=0;exitDy=0;entryX=0;entryY=0.5;entryDx=0;entryDy=0;" parent="1" source="fKfA4gt4jQPloBtkc1-s-57" target="fKfA4gt4jQPloBtkc1-s-4" edge="1">
          <mxGeometry relative="1" as="geometry">
            <mxPoint x="-180" y="440" as="sourcePoint" />
            <mxPoint x="-90" y="440" as="targetPoint" />
          </mxGeometry>
        </mxCell>
        <mxCell id="fKfA4gt4jQPloBtkc1-s-67" value="" style="endArrow=none;html=1;rounded=0;exitX=1;exitY=0.5;exitDx=0;exitDy=0;entryX=0;entryY=0;entryDx=0;entryDy=0;" parent="1" source="fKfA4gt4jQPloBtkc1-s-56" target="fKfA4gt4jQPloBtkc1-s-4" edge="1">
          <mxGeometry relative="1" as="geometry">
            <mxPoint x="-160" y="420" as="sourcePoint" />
            <mxPoint y="420" as="targetPoint" />
          </mxGeometry>
        </mxCell>
        <mxCell id="fKfA4gt4jQPloBtkc1-s-69" value="" style="endArrow=none;html=1;rounded=0;exitX=1;exitY=0.5;exitDx=0;exitDy=0;entryX=0;entryY=0;entryDx=0;entryDy=0;" parent="1" source="fKfA4gt4jQPloBtkc1-s-59" target="fKfA4gt4jQPloBtkc1-s-4" edge="1">
          <mxGeometry relative="1" as="geometry">
            <mxPoint x="-250" y="370" as="sourcePoint" />
            <mxPoint x="-90" y="370" as="targetPoint" />
          </mxGeometry>
        </mxCell>
        <mxCell id="fKfA4gt4jQPloBtkc1-s-70" value="" style="endArrow=none;html=1;rounded=0;exitX=1;exitY=0.5;exitDx=0;exitDy=0;" parent="1" source="elOo_HZCFg8z0Z6I5Kyt-94" edge="1">
          <mxGeometry relative="1" as="geometry">
            <mxPoint x="10" y="270" as="sourcePoint" />
            <mxPoint x="40" y="360" as="targetPoint" />
          </mxGeometry>
        </mxCell>
        <mxCell id="fKfA4gt4jQPloBtkc1-s-71" value="" style="endArrow=none;html=1;rounded=0;exitX=1;exitY=0.5;exitDx=0;exitDy=0;" parent="1" source="elOo_HZCFg8z0Z6I5Kyt-95" edge="1">
          <mxGeometry relative="1" as="geometry">
            <mxPoint x="-10" y="290" as="sourcePoint" />
            <mxPoint x="30" y="360" as="targetPoint" />
          </mxGeometry>
        </mxCell>
        <mxCell id="fKfA4gt4jQPloBtkc1-s-73" value="" style="endArrow=none;html=1;rounded=0;entryX=0;entryY=0.25;entryDx=0;entryDy=0;exitX=1;exitY=0.5;exitDx=0;exitDy=0;" parent="1" source="fKfA4gt4jQPloBtkc1-s-3" target="elOo_HZCFg8z0Z6I5Kyt-7" edge="1">
          <mxGeometry relative="1" as="geometry">
            <mxPoint x="-90" y="310" as="sourcePoint" />
            <mxPoint x="70" y="310" as="targetPoint" />
          </mxGeometry>
        </mxCell>
        <mxCell id="fKfA4gt4jQPloBtkc1-s-74" value="" style="endArrow=none;html=1;rounded=0;exitX=1;exitY=0.5;exitDx=0;exitDy=0;entryX=0;entryY=0.75;entryDx=0;entryDy=0;" parent="1" source="fKfA4gt4jQPloBtkc1-s-1" target="elOo_HZCFg8z0Z6I5Kyt-7" edge="1">
          <mxGeometry relative="1" as="geometry">
            <mxPoint x="10" y="370" as="sourcePoint" />
            <mxPoint x="170" y="370" as="targetPoint" />
          </mxGeometry>
        </mxCell>
        <mxCell id="fKfA4gt4jQPloBtkc1-s-76" value="" style="endArrow=none;html=1;rounded=0;exitX=1;exitY=0.5;exitDx=0;exitDy=0;entryX=0.25;entryY=1;entryDx=0;entryDy=0;" parent="1" source="fKfA4gt4jQPloBtkc1-s-2" target="elOo_HZCFg8z0Z6I5Kyt-7" edge="1">
          <mxGeometry relative="1" as="geometry">
            <mxPoint x="50" y="390" as="sourcePoint" />
            <mxPoint x="210" y="390" as="targetPoint" />
          </mxGeometry>
        </mxCell>
        <mxCell id="fKfA4gt4jQPloBtkc1-s-83" value="" style="endArrow=none;html=1;rounded=0;entryX=0.5;entryY=1;entryDx=0;entryDy=0;exitX=1;exitY=0.5;exitDx=0;exitDy=0;" parent="1" source="fKfA4gt4jQPloBtkc1-s-4" target="elOo_HZCFg8z0Z6I5Kyt-7" edge="1">
          <mxGeometry relative="1" as="geometry">
            <mxPoint x="30" y="420" as="sourcePoint" />
            <mxPoint x="190" y="420" as="targetPoint" />
          </mxGeometry>
        </mxCell>
        <mxCell id="fKfA4gt4jQPloBtkc1-s-85" style="edgeStyle=orthogonalEdgeStyle;rounded=0;orthogonalLoop=1;jettySize=auto;html=1;exitX=0.5;exitY=1;exitDx=0;exitDy=0;" parent="1" source="fKfA4gt4jQPloBtkc1-s-13" target="fKfA4gt4jQPloBtkc1-s-13" edge="1">
          <mxGeometry relative="1" as="geometry" />
        </mxCell>
        <mxCell id="fKfA4gt4jQPloBtkc1-s-86" value="" style="endArrow=none;html=1;rounded=0;exitX=1;exitY=0.5;exitDx=0;exitDy=0;entryX=0.42;entryY=-0.025;entryDx=0;entryDy=0;entryPerimeter=0;" parent="1" source="fKfA4gt4jQPloBtkc1-s-14" target="elOo_HZCFg8z0Z6I5Kyt-9" edge="1">
          <mxGeometry relative="1" as="geometry">
            <mxPoint x="-40" y="540" as="sourcePoint" />
            <mxPoint x="90" y="597" as="targetPoint" />
          </mxGeometry>
        </mxCell>
        <mxCell id="fKfA4gt4jQPloBtkc1-s-87" value="" style="endArrow=none;html=1;rounded=0;exitX=1;exitY=0.5;exitDx=0;exitDy=0;" parent="1" source="fKfA4gt4jQPloBtkc1-s-12" edge="1">
          <mxGeometry relative="1" as="geometry">
            <mxPoint x="-40" y="560" as="sourcePoint" />
            <mxPoint x="70" y="600" as="targetPoint" />
          </mxGeometry>
        </mxCell>
        <mxCell id="fKfA4gt4jQPloBtkc1-s-88" value="" style="endArrow=none;html=1;rounded=0;entryX=0.1;entryY=0.025;entryDx=0;entryDy=0;entryPerimeter=0;" parent="1" target="elOo_HZCFg8z0Z6I5Kyt-9" edge="1">
          <mxGeometry relative="1" as="geometry">
            <mxPoint x="-50" y="580" as="sourcePoint" />
            <mxPoint x="44" y="598" as="targetPoint" />
          </mxGeometry>
        </mxCell>
        <mxCell id="fKfA4gt4jQPloBtkc1-s-89" value="" style="endArrow=none;html=1;rounded=0;entryX=0;entryY=0.25;entryDx=0;entryDy=0;" parent="1" target="elOo_HZCFg8z0Z6I5Kyt-9" edge="1">
          <mxGeometry relative="1" as="geometry">
            <mxPoint x="-50" y="600" as="sourcePoint" />
            <mxPoint x="20" y="610" as="targetPoint" />
          </mxGeometry>
        </mxCell>
        <mxCell id="fKfA4gt4jQPloBtkc1-s-90" value="" style="endArrow=none;html=1;rounded=0;entryX=0;entryY=0.5;entryDx=0;entryDy=0;" parent="1" target="elOo_HZCFg8z0Z6I5Kyt-9" edge="1">
          <mxGeometry relative="1" as="geometry">
            <mxPoint x="-50" y="620" as="sourcePoint" />
            <mxPoint x="30" y="620" as="targetPoint" />
          </mxGeometry>
        </mxCell>
        <mxCell id="fKfA4gt4jQPloBtkc1-s-91" value="" style="endArrow=none;html=1;rounded=0;exitX=1;exitY=0.5;exitDx=0;exitDy=0;entryX=0;entryY=0.75;entryDx=0;entryDy=0;" parent="1" source="fKfA4gt4jQPloBtkc1-s-13" target="elOo_HZCFg8z0Z6I5Kyt-9" edge="1">
          <mxGeometry relative="1" as="geometry">
            <mxPoint x="-40" y="650" as="sourcePoint" />
            <mxPoint x="120" y="650" as="targetPoint" />
          </mxGeometry>
        </mxCell>
        <mxCell id="fKfA4gt4jQPloBtkc1-s-92" value="" style="endArrow=none;html=1;rounded=0;exitX=1;exitY=0.5;exitDx=0;exitDy=0;entryX=0;entryY=1;entryDx=0;entryDy=0;" parent="1" source="fKfA4gt4jQPloBtkc1-s-7" target="elOo_HZCFg8z0Z6I5Kyt-9" edge="1">
          <mxGeometry relative="1" as="geometry">
            <mxPoint x="-20" y="660" as="sourcePoint" />
            <mxPoint x="30" y="640" as="targetPoint" />
          </mxGeometry>
        </mxCell>
        <mxCell id="fKfA4gt4jQPloBtkc1-s-93" value="" style="endArrow=none;html=1;rounded=0;entryX=0.14;entryY=0.975;entryDx=0;entryDy=0;entryPerimeter=0;exitX=1;exitY=0.5;exitDx=0;exitDy=0;" parent="1" source="fKfA4gt4jQPloBtkc1-s-5" target="elOo_HZCFg8z0Z6I5Kyt-9" edge="1">
          <mxGeometry relative="1" as="geometry">
            <mxPoint x="-10" y="680" as="sourcePoint" />
            <mxPoint x="150" y="680" as="targetPoint" />
          </mxGeometry>
        </mxCell>
        <mxCell id="fKfA4gt4jQPloBtkc1-s-94" value="" style="endArrow=none;html=1;rounded=0;entryX=0.25;entryY=1;entryDx=0;entryDy=0;exitX=1;exitY=0.5;exitDx=0;exitDy=0;" parent="1" source="fKfA4gt4jQPloBtkc1-s-11" target="elOo_HZCFg8z0Z6I5Kyt-9" edge="1">
          <mxGeometry relative="1" as="geometry">
            <mxPoint x="-10" y="690" as="sourcePoint" />
            <mxPoint x="150" y="690" as="targetPoint" />
          </mxGeometry>
        </mxCell>
        <mxCell id="fKfA4gt4jQPloBtkc1-s-95" value="" style="endArrow=none;html=1;rounded=0;entryX=0;entryY=1;entryDx=0;entryDy=0;exitX=0.5;exitY=0;exitDx=0;exitDy=0;" parent="1" source="elOo_HZCFg8z0Z6I5Kyt-6" target="fKfA4gt4jQPloBtkc1-s-27" edge="1">
          <mxGeometry relative="1" as="geometry">
            <mxPoint x="700" y="360" as="sourcePoint" />
            <mxPoint x="860" y="360" as="targetPoint" />
          </mxGeometry>
        </mxCell>
        <mxCell id="fKfA4gt4jQPloBtkc1-s-96" value="" style="endArrow=none;html=1;rounded=0;exitX=0.664;exitY=-0.025;exitDx=0;exitDy=0;entryX=0.06;entryY=0.85;entryDx=0;entryDy=0;entryPerimeter=0;exitPerimeter=0;" parent="1" source="elOo_HZCFg8z0Z6I5Kyt-6" target="fKfA4gt4jQPloBtkc1-s-25" edge="1">
          <mxGeometry relative="1" as="geometry">
            <mxPoint x="750" y="370" as="sourcePoint" />
            <mxPoint x="910" y="370" as="targetPoint" />
          </mxGeometry>
        </mxCell>
        <mxCell id="fKfA4gt4jQPloBtkc1-s-97" value="" style="endArrow=none;html=1;rounded=0;exitX=0.845;exitY=-0.025;exitDx=0;exitDy=0;exitPerimeter=0;entryX=0;entryY=0.5;entryDx=0;entryDy=0;" parent="1" source="elOo_HZCFg8z0Z6I5Kyt-6" target="fKfA4gt4jQPloBtkc1-s-23" edge="1">
          <mxGeometry relative="1" as="geometry">
            <mxPoint x="780" y="370" as="sourcePoint" />
            <mxPoint x="940" y="370" as="targetPoint" />
          </mxGeometry>
        </mxCell>
        <mxCell id="fKfA4gt4jQPloBtkc1-s-98" value="" style="endArrow=none;html=1;rounded=0;exitX=1;exitY=0.25;exitDx=0;exitDy=0;" parent="1" source="elOo_HZCFg8z0Z6I5Kyt-6" target="fKfA4gt4jQPloBtkc1-s-29" edge="1">
          <mxGeometry relative="1" as="geometry">
            <mxPoint x="770" y="380" as="sourcePoint" />
            <mxPoint x="930" y="380" as="targetPoint" />
          </mxGeometry>
        </mxCell>
        <mxCell id="fKfA4gt4jQPloBtkc1-s-99" value="" style="endArrow=none;html=1;rounded=0;entryX=0;entryY=0.5;entryDx=0;entryDy=0;exitX=1;exitY=0.5;exitDx=0;exitDy=0;" parent="1" source="elOo_HZCFg8z0Z6I5Kyt-6" target="fKfA4gt4jQPloBtkc1-s-24" edge="1">
          <mxGeometry relative="1" as="geometry">
            <mxPoint x="770" y="390" as="sourcePoint" />
            <mxPoint x="930" y="400" as="targetPoint" />
          </mxGeometry>
        </mxCell>
        <mxCell id="fKfA4gt4jQPloBtkc1-s-100" value="" style="endArrow=none;html=1;rounded=0;entryX=0;entryY=0.5;entryDx=0;entryDy=0;exitX=1;exitY=0.75;exitDx=0;exitDy=0;" parent="1" source="elOo_HZCFg8z0Z6I5Kyt-6" target="fKfA4gt4jQPloBtkc1-s-31" edge="1">
          <mxGeometry relative="1" as="geometry">
            <mxPoint x="770" y="410" as="sourcePoint" />
            <mxPoint x="930" y="410" as="targetPoint" />
          </mxGeometry>
        </mxCell>
        <mxCell id="fKfA4gt4jQPloBtkc1-s-101" value="" style="endArrow=none;html=1;rounded=0;entryX=0;entryY=0.5;entryDx=0;entryDy=0;" parent="1" target="fKfA4gt4jQPloBtkc1-s-32" edge="1">
          <mxGeometry relative="1" as="geometry">
            <mxPoint x="760" y="390" as="sourcePoint" />
            <mxPoint x="920" y="430" as="targetPoint" />
          </mxGeometry>
        </mxCell>
        <mxCell id="fKfA4gt4jQPloBtkc1-s-102" value="" style="endArrow=none;html=1;rounded=0;exitX=1;exitY=1;exitDx=0;exitDy=0;entryX=0;entryY=0.5;entryDx=0;entryDy=0;" parent="1" source="elOo_HZCFg8z0Z6I5Kyt-6" target="fKfA4gt4jQPloBtkc1-s-26" edge="1">
          <mxGeometry relative="1" as="geometry">
            <mxPoint x="760" y="440" as="sourcePoint" />
            <mxPoint x="920" y="440" as="targetPoint" />
          </mxGeometry>
        </mxCell>
        <mxCell id="fKfA4gt4jQPloBtkc1-s-103" value="" style="endArrow=none;html=1;rounded=0;exitX=0.891;exitY=0.975;exitDx=0;exitDy=0;exitPerimeter=0;entryX=0;entryY=0.5;entryDx=0;entryDy=0;" parent="1" source="elOo_HZCFg8z0Z6I5Kyt-6" target="fKfA4gt4jQPloBtkc1-s-28" edge="1">
          <mxGeometry relative="1" as="geometry">
            <mxPoint x="740" y="440" as="sourcePoint" />
            <mxPoint x="900" y="440" as="targetPoint" />
          </mxGeometry>
        </mxCell>
        <mxCell id="fKfA4gt4jQPloBtkc1-s-104" value="" style="endArrow=none;html=1;rounded=0;entryX=0.08;entryY=0.3;entryDx=0;entryDy=0;entryPerimeter=0;exitX=0.75;exitY=1;exitDx=0;exitDy=0;" parent="1" source="elOo_HZCFg8z0Z6I5Kyt-6" target="fKfA4gt4jQPloBtkc1-s-33" edge="1">
          <mxGeometry relative="1" as="geometry">
            <mxPoint x="750" y="420" as="sourcePoint" />
            <mxPoint x="840" y="460" as="targetPoint" />
          </mxGeometry>
        </mxCell>
        <mxCell id="fKfA4gt4jQPloBtkc1-s-105" value="" style="endArrow=none;html=1;rounded=0;exitX=0.664;exitY=1.025;exitDx=0;exitDy=0;exitPerimeter=0;entryX=0.063;entryY=0.2;entryDx=0;entryDy=0;entryPerimeter=0;" parent="1" source="elOo_HZCFg8z0Z6I5Kyt-6" target="fKfA4gt4jQPloBtkc1-s-30" edge="1">
          <mxGeometry relative="1" as="geometry">
            <mxPoint x="680" y="480" as="sourcePoint" />
            <mxPoint x="840" y="480" as="targetPoint" />
          </mxGeometry>
        </mxCell>
        <mxCell id="fKfA4gt4jQPloBtkc1-s-118" value="" style="edgeStyle=entityRelationEdgeStyle;fontSize=12;html=1;endArrow=ERoneToMany;rounded=0;exitX=1;exitY=0.5;exitDx=0;exitDy=0;" parent="1" source="elOo_HZCFg8z0Z6I5Kyt-1" edge="1">
          <mxGeometry width="100" height="100" relative="1" as="geometry">
            <mxPoint x="520" y="240" as="sourcePoint" />
            <mxPoint x="620" y="140" as="targetPoint" />
          </mxGeometry>
        </mxCell>
        <mxCell id="fKfA4gt4jQPloBtkc1-s-131" value="M" style="edgeLabel;html=1;align=center;verticalAlign=middle;resizable=0;points=[];" parent="fKfA4gt4jQPloBtkc1-s-118" vertex="1" connectable="0">
          <mxGeometry x="0.7333" y="3" relative="1" as="geometry">
            <mxPoint as="offset" />
          </mxGeometry>
        </mxCell>
        <mxCell id="fKfA4gt4jQPloBtkc1-s-132" value="1" style="edgeLabel;html=1;align=center;verticalAlign=middle;resizable=0;points=[];" parent="fKfA4gt4jQPloBtkc1-s-118" vertex="1" connectable="0">
          <mxGeometry x="-0.8256" y="3" relative="1" as="geometry">
            <mxPoint as="offset" />
          </mxGeometry>
        </mxCell>
        <mxCell id="fKfA4gt4jQPloBtkc1-s-119" value="wrok for" style="shape=rhombus;perimeter=rhombusPerimeter;whiteSpace=wrap;html=1;align=center;" parent="1" vertex="1">
          <mxGeometry x="480" y="120" width="90" height="40" as="geometry" />
        </mxCell>
        <mxCell id="fKfA4gt4jQPloBtkc1-s-127" value="" style="edgeStyle=elbowEdgeStyle;fontSize=12;html=1;endArrow=ERmany;startArrow=ERmany;rounded=0;entryX=0.162;entryY=1.022;entryDx=0;entryDy=0;exitX=0.75;exitY=1;exitDx=0;exitDy=0;entryPerimeter=0;" parent="1" source="elOo_HZCFg8z0Z6I5Kyt-3" target="elOo_HZCFg8z0Z6I5Kyt-4" edge="1">
          <mxGeometry width="100" height="100" relative="1" as="geometry">
            <mxPoint x="120" y="190" as="sourcePoint" />
            <mxPoint x="630" y="210" as="targetPoint" />
            <Array as="points">
              <mxPoint x="390" y="220" />
              <mxPoint x="450" y="240" />
            </Array>
          </mxGeometry>
        </mxCell>
        <mxCell id="fKfA4gt4jQPloBtkc1-s-129" value="manage" style="shape=rhombus;perimeter=rhombusPerimeter;whiteSpace=wrap;html=1;align=center;" parent="1" vertex="1">
          <mxGeometry x="330" y="200" width="110" height="40" as="geometry" />
        </mxCell>
        <mxCell id="fKfA4gt4jQPloBtkc1-s-133" value="" style="fontSize=12;html=1;endArrow=ERoneToMany;rounded=0;entryX=1;entryY=0.5;entryDx=0;entryDy=0;exitX=0;exitY=0.5;exitDx=0;exitDy=0;" parent="1" source="elOo_HZCFg8z0Z6I5Kyt-1" target="elOo_HZCFg8z0Z6I5Kyt-3" edge="1">
          <mxGeometry width="100" height="100" relative="1" as="geometry">
            <mxPoint x="320" y="140" as="sourcePoint" />
            <mxPoint x="180" y="150" as="targetPoint" />
          </mxGeometry>
        </mxCell>
        <mxCell id="fKfA4gt4jQPloBtkc1-s-135" value="has" style="shape=rhombus;perimeter=rhombusPerimeter;whiteSpace=wrap;html=1;align=center;" parent="1" vertex="1">
          <mxGeometry x="200" y="120" width="90" height="40" as="geometry" />
        </mxCell>
        <mxCell id="fKfA4gt4jQPloBtkc1-s-145" value="" style="fontSize=12;html=1;endArrow=ERoneToMany;rounded=0;entryX=0.42;entryY=0;entryDx=0;entryDy=0;entryPerimeter=0;" parent="1" target="elOo_HZCFg8z0Z6I5Kyt-7" edge="1">
          <mxGeometry width="100" height="100" relative="1" as="geometry">
            <mxPoint x="72" y="160" as="sourcePoint" />
            <mxPoint x="72" y="320" as="targetPoint" />
            <Array as="points">
              <mxPoint x="73" y="260" />
            </Array>
          </mxGeometry>
        </mxCell>
        <mxCell id="qEdgaqoT0oGhfZVgamtg-4" value="" style="endArrow=none;html=1;rounded=0;exitX=1;exitY=0.5;exitDx=0;exitDy=0;entryX=0;entryY=0;entryDx=0;entryDy=0;" parent="1" source="fKfA4gt4jQPloBtkc1-s-22" target="elOo_HZCFg8z0Z6I5Kyt-5" edge="1">
          <mxGeometry relative="1" as="geometry">
            <mxPoint x="-40" y="810" as="sourcePoint" />
            <mxPoint x="120" y="810" as="targetPoint" />
          </mxGeometry>
        </mxCell>
        <mxCell id="qEdgaqoT0oGhfZVgamtg-5" value="" style="endArrow=none;html=1;rounded=0;entryX=0;entryY=0.25;entryDx=0;entryDy=0;exitX=1;exitY=0.5;exitDx=0;exitDy=0;" parent="1" source="fKfA4gt4jQPloBtkc1-s-21" target="elOo_HZCFg8z0Z6I5Kyt-5" edge="1">
          <mxGeometry relative="1" as="geometry">
            <mxPoint x="-40" y="820" as="sourcePoint" />
            <mxPoint x="110" y="820" as="targetPoint" />
          </mxGeometry>
        </mxCell>
        <mxCell id="qEdgaqoT0oGhfZVgamtg-6" value="" style="endArrow=none;html=1;rounded=0;entryX=0;entryY=0.5;entryDx=0;entryDy=0;exitX=1;exitY=0.5;exitDx=0;exitDy=0;" parent="1" source="fKfA4gt4jQPloBtkc1-s-20" target="elOo_HZCFg8z0Z6I5Kyt-5" edge="1">
          <mxGeometry relative="1" as="geometry">
            <mxPoint x="-50" y="840" as="sourcePoint" />
            <mxPoint x="110" y="840" as="targetPoint" />
          </mxGeometry>
        </mxCell>
        <mxCell id="qEdgaqoT0oGhfZVgamtg-7" value="" style="endArrow=none;html=1;rounded=0;entryX=0;entryY=0.75;entryDx=0;entryDy=0;" parent="1" target="elOo_HZCFg8z0Z6I5Kyt-5" edge="1">
          <mxGeometry relative="1" as="geometry">
            <mxPoint x="-50" y="860" as="sourcePoint" />
            <mxPoint x="50" y="870" as="targetPoint" />
          </mxGeometry>
        </mxCell>
        <mxCell id="qEdgaqoT0oGhfZVgamtg-8" value="" style="endArrow=none;html=1;rounded=0;exitX=1;exitY=0.5;exitDx=0;exitDy=0;" parent="1" source="fKfA4gt4jQPloBtkc1-s-18" edge="1">
          <mxGeometry relative="1" as="geometry">
            <mxPoint x="-30" y="880" as="sourcePoint" />
            <mxPoint x="55" y="870" as="targetPoint" />
          </mxGeometry>
        </mxCell>
        <mxCell id="qEdgaqoT0oGhfZVgamtg-9" value="" style="endArrow=none;html=1;rounded=0;entryX=0;entryY=1;entryDx=0;entryDy=0;" parent="1" target="elOo_HZCFg8z0Z6I5Kyt-5" edge="1">
          <mxGeometry relative="1" as="geometry">
            <mxPoint x="-50" y="900" as="sourcePoint" />
            <mxPoint x="50" y="880" as="targetPoint" />
          </mxGeometry>
        </mxCell>
        <mxCell id="fKfA4gt4jQPloBtkc1-s-146" value="perform" style="shape=rhombus;perimeter=rhombusPerimeter;whiteSpace=wrap;html=1;align=center;rotation=90;" parent="1" vertex="1">
          <mxGeometry x="30" y="220" width="85" height="40" as="geometry" />
        </mxCell>
        <mxCell id="qEdgaqoT0oGhfZVgamtg-14" value="with_ID" style="ellipse;whiteSpace=wrap;html=1;align=center;" parent="1" vertex="1">
          <mxGeometry x="850" y="550" width="100" height="20" as="geometry" />
        </mxCell>
        <mxCell id="qEdgaqoT0oGhfZVgamtg-15" value="with_acc" style="ellipse;whiteSpace=wrap;html=1;align=center;" parent="1" vertex="1">
          <mxGeometry x="850" y="590" width="100" height="20" as="geometry" />
        </mxCell>
        <mxCell id="qEdgaqoT0oGhfZVgamtg-16" value="with_currency" style="ellipse;whiteSpace=wrap;html=1;align=center;" parent="1" vertex="1">
          <mxGeometry x="850" y="630" width="100" height="20" as="geometry" />
        </mxCell>
        <mxCell id="qEdgaqoT0oGhfZVgamtg-17" value="with_date" style="ellipse;whiteSpace=wrap;html=1;align=center;" parent="1" vertex="1">
          <mxGeometry x="850" y="650" width="100" height="20" as="geometry" />
        </mxCell>
        <mxCell id="qEdgaqoT0oGhfZVgamtg-18" value="with_name" style="ellipse;whiteSpace=wrap;html=1;align=center;" parent="1" vertex="1">
          <mxGeometry x="850" y="570" width="100" height="20" as="geometry" />
        </mxCell>
        <mxCell id="qEdgaqoT0oGhfZVgamtg-19" value="with_amount" style="ellipse;whiteSpace=wrap;html=1;align=center;" parent="1" vertex="1">
          <mxGeometry x="850" y="610" width="100" height="20" as="geometry" />
        </mxCell>
        <mxCell id="qEdgaqoT0oGhfZVgamtg-20" value="depo_ID" style="ellipse;whiteSpace=wrap;html=1;align=center;" parent="1" vertex="1">
          <mxGeometry x="850" y="780" width="100" height="20" as="geometry" />
        </mxCell>
        <mxCell id="qEdgaqoT0oGhfZVgamtg-21" value="depo_acc" style="ellipse;whiteSpace=wrap;html=1;align=center;" parent="1" vertex="1">
          <mxGeometry x="850" y="820" width="100" height="20" as="geometry" />
        </mxCell>
        <mxCell id="qEdgaqoT0oGhfZVgamtg-22" value="depo_name" style="ellipse;whiteSpace=wrap;html=1;align=center;" parent="1" vertex="1">
          <mxGeometry x="850" y="800" width="100" height="20" as="geometry" />
        </mxCell>
        <mxCell id="qEdgaqoT0oGhfZVgamtg-24" value="depo_date" style="ellipse;whiteSpace=wrap;html=1;align=center;" parent="1" vertex="1">
          <mxGeometry x="850" y="880" width="100" height="20" as="geometry" />
        </mxCell>
        <mxCell id="qEdgaqoT0oGhfZVgamtg-25" value="depo_amount" style="ellipse;whiteSpace=wrap;html=1;align=center;" parent="1" vertex="1">
          <mxGeometry x="850" y="840" width="100" height="20" as="geometry" />
        </mxCell>
        <mxCell id="qEdgaqoT0oGhfZVgamtg-26" value="bank_card" style="whiteSpace=wrap;html=1;align=center;" parent="1" vertex="1">
          <mxGeometry x="340" y="1040" width="100" height="40" as="geometry" />
        </mxCell>
        <mxCell id="qEdgaqoT0oGhfZVgamtg-27" value="afghani" style="ellipse;whiteSpace=wrap;html=1;align=center;" parent="1" vertex="1">
          <mxGeometry x="1000" y="590" width="80" height="20" as="geometry" />
        </mxCell>
        <mxCell id="qEdgaqoT0oGhfZVgamtg-28" value="dolor" style="ellipse;whiteSpace=wrap;html=1;align=center;" parent="1" vertex="1">
          <mxGeometry x="1000" y="610" width="80" height="20" as="geometry" />
        </mxCell>
        <mxCell id="qEdgaqoT0oGhfZVgamtg-29" value="pound" style="ellipse;whiteSpace=wrap;html=1;align=center;" parent="1" vertex="1">
          <mxGeometry x="1000" y="630" width="80" height="20" as="geometry" />
        </mxCell>
        <mxCell id="qEdgaqoT0oGhfZVgamtg-30" value="euro" style="ellipse;whiteSpace=wrap;html=1;align=center;" parent="1" vertex="1">
          <mxGeometry x="1000" y="650" width="80" height="20" as="geometry" />
        </mxCell>
        <mxCell id="qEdgaqoT0oGhfZVgamtg-32" value="" style="endArrow=none;html=1;rounded=0;entryX=0;entryY=0.5;entryDx=0;entryDy=0;exitX=1;exitY=0;exitDx=0;exitDy=0;" parent="1" source="qEdgaqoT0oGhfZVgamtg-16" target="qEdgaqoT0oGhfZVgamtg-27" edge="1">
          <mxGeometry relative="1" as="geometry">
            <mxPoint x="935" y="640" as="sourcePoint" />
            <mxPoint x="1100" y="630" as="targetPoint" />
          </mxGeometry>
        </mxCell>
        <mxCell id="qEdgaqoT0oGhfZVgamtg-33" value="" style="endArrow=none;html=1;rounded=0;entryX=0;entryY=0.5;entryDx=0;entryDy=0;exitX=0.94;exitY=0.3;exitDx=0;exitDy=0;exitPerimeter=0;" parent="1" source="qEdgaqoT0oGhfZVgamtg-16" target="qEdgaqoT0oGhfZVgamtg-28" edge="1">
          <mxGeometry relative="1" as="geometry">
            <mxPoint x="950" y="640" as="sourcePoint" />
            <mxPoint x="1110" y="640" as="targetPoint" />
          </mxGeometry>
        </mxCell>
        <mxCell id="qEdgaqoT0oGhfZVgamtg-34" value="" style="endArrow=none;html=1;rounded=0;entryX=0;entryY=0.5;entryDx=0;entryDy=0;" parent="1" target="qEdgaqoT0oGhfZVgamtg-29" edge="1">
          <mxGeometry relative="1" as="geometry">
            <mxPoint x="950" y="640" as="sourcePoint" />
            <mxPoint x="1110" y="640" as="targetPoint" />
          </mxGeometry>
        </mxCell>
        <mxCell id="qEdgaqoT0oGhfZVgamtg-36" value="" style="endArrow=none;html=1;rounded=0;entryX=0;entryY=0.5;entryDx=0;entryDy=0;" parent="1" target="qEdgaqoT0oGhfZVgamtg-30" edge="1">
          <mxGeometry relative="1" as="geometry">
            <mxPoint x="942" y="644" as="sourcePoint" />
            <mxPoint x="1120" y="680" as="targetPoint" />
          </mxGeometry>
        </mxCell>
        <mxCell id="qEdgaqoT0oGhfZVgamtg-55" value="depo_currency" style="ellipse;whiteSpace=wrap;html=1;align=center;" parent="1" vertex="1">
          <mxGeometry x="850" y="860" width="100" height="20" as="geometry" />
        </mxCell>
        <mxCell id="qEdgaqoT0oGhfZVgamtg-56" value="afghani" style="ellipse;whiteSpace=wrap;html=1;align=center;" parent="1" vertex="1">
          <mxGeometry x="1000" y="820" width="80" height="20" as="geometry" />
        </mxCell>
        <mxCell id="qEdgaqoT0oGhfZVgamtg-57" value="dolor" style="ellipse;whiteSpace=wrap;html=1;align=center;" parent="1" vertex="1">
          <mxGeometry x="1000" y="840" width="80" height="20" as="geometry" />
        </mxCell>
        <mxCell id="qEdgaqoT0oGhfZVgamtg-58" value="pound" style="ellipse;whiteSpace=wrap;html=1;align=center;" parent="1" vertex="1">
          <mxGeometry x="1000" y="860" width="80" height="20" as="geometry" />
        </mxCell>
        <mxCell id="qEdgaqoT0oGhfZVgamtg-59" value="euro" style="ellipse;whiteSpace=wrap;html=1;align=center;" parent="1" vertex="1">
          <mxGeometry x="1000" y="880" width="80" height="20" as="geometry" />
        </mxCell>
        <mxCell id="qEdgaqoT0oGhfZVgamtg-60" value="" style="endArrow=none;html=1;rounded=0;entryX=0;entryY=0.5;entryDx=0;entryDy=0;exitX=1;exitY=0;exitDx=0;exitDy=0;" parent="1" source="qEdgaqoT0oGhfZVgamtg-55" target="qEdgaqoT0oGhfZVgamtg-56" edge="1">
          <mxGeometry relative="1" as="geometry">
            <mxPoint x="935" y="870" as="sourcePoint" />
            <mxPoint x="1100" y="860" as="targetPoint" />
          </mxGeometry>
        </mxCell>
        <mxCell id="qEdgaqoT0oGhfZVgamtg-61" value="" style="endArrow=none;html=1;rounded=0;entryX=0;entryY=0.5;entryDx=0;entryDy=0;exitX=0.94;exitY=0.3;exitDx=0;exitDy=0;exitPerimeter=0;" parent="1" source="qEdgaqoT0oGhfZVgamtg-55" target="qEdgaqoT0oGhfZVgamtg-57" edge="1">
          <mxGeometry relative="1" as="geometry">
            <mxPoint x="950" y="870" as="sourcePoint" />
            <mxPoint x="1110" y="870" as="targetPoint" />
          </mxGeometry>
        </mxCell>
        <mxCell id="qEdgaqoT0oGhfZVgamtg-62" value="" style="endArrow=none;html=1;rounded=0;entryX=0;entryY=0.5;entryDx=0;entryDy=0;" parent="1" target="qEdgaqoT0oGhfZVgamtg-58" edge="1">
          <mxGeometry relative="1" as="geometry">
            <mxPoint x="950" y="870" as="sourcePoint" />
            <mxPoint x="1110" y="870" as="targetPoint" />
          </mxGeometry>
        </mxCell>
        <mxCell id="qEdgaqoT0oGhfZVgamtg-63" value="" style="endArrow=none;html=1;rounded=0;entryX=0;entryY=0.5;entryDx=0;entryDy=0;" parent="1" target="qEdgaqoT0oGhfZVgamtg-59" edge="1">
          <mxGeometry relative="1" as="geometry">
            <mxPoint x="942" y="874" as="sourcePoint" />
            <mxPoint x="1120" y="910" as="targetPoint" />
          </mxGeometry>
        </mxCell>
        <mxCell id="qEdgaqoT0oGhfZVgamtg-64" value="" style="endArrow=none;html=1;rounded=0;entryX=0;entryY=0.5;entryDx=0;entryDy=0;exitX=0.75;exitY=0;exitDx=0;exitDy=0;" parent="1" source="elOo_HZCFg8z0Z6I5Kyt-10" target="qEdgaqoT0oGhfZVgamtg-14" edge="1">
          <mxGeometry relative="1" as="geometry">
            <mxPoint x="720" y="580" as="sourcePoint" />
            <mxPoint x="880" y="580" as="targetPoint" />
          </mxGeometry>
        </mxCell>
        <mxCell id="qEdgaqoT0oGhfZVgamtg-65" value="" style="endArrow=none;html=1;rounded=0;entryX=0;entryY=0.5;entryDx=0;entryDy=0;" parent="1" target="qEdgaqoT0oGhfZVgamtg-18" edge="1">
          <mxGeometry relative="1" as="geometry">
            <mxPoint x="760" y="600" as="sourcePoint" />
            <mxPoint x="920" y="600" as="targetPoint" />
          </mxGeometry>
        </mxCell>
        <mxCell id="qEdgaqoT0oGhfZVgamtg-66" value="" style="endArrow=none;html=1;rounded=0;entryX=0;entryY=0.5;entryDx=0;entryDy=0;exitX=1;exitY=0.25;exitDx=0;exitDy=0;" parent="1" source="elOo_HZCFg8z0Z6I5Kyt-10" target="qEdgaqoT0oGhfZVgamtg-15" edge="1">
          <mxGeometry relative="1" as="geometry">
            <mxPoint x="770" y="610" as="sourcePoint" />
            <mxPoint x="850" y="610" as="targetPoint" />
          </mxGeometry>
        </mxCell>
        <mxCell id="qEdgaqoT0oGhfZVgamtg-67" value="" style="endArrow=none;html=1;rounded=0;exitX=1;exitY=0.5;exitDx=0;exitDy=0;" parent="1" source="elOo_HZCFg8z0Z6I5Kyt-10" edge="1">
          <mxGeometry relative="1" as="geometry">
            <mxPoint x="770" y="620" as="sourcePoint" />
            <mxPoint x="850" y="620" as="targetPoint" />
          </mxGeometry>
        </mxCell>
        <mxCell id="qEdgaqoT0oGhfZVgamtg-69" value="" style="endArrow=none;html=1;rounded=0;entryX=0;entryY=0.5;entryDx=0;entryDy=0;exitX=1;exitY=0.75;exitDx=0;exitDy=0;" parent="1" source="elOo_HZCFg8z0Z6I5Kyt-10" target="qEdgaqoT0oGhfZVgamtg-16" edge="1">
          <mxGeometry relative="1" as="geometry">
            <mxPoint x="770" y="630" as="sourcePoint" />
            <mxPoint x="920" y="630" as="targetPoint" />
          </mxGeometry>
        </mxCell>
        <mxCell id="qEdgaqoT0oGhfZVgamtg-70" value="" style="endArrow=none;html=1;rounded=0;entryX=0;entryY=0.5;entryDx=0;entryDy=0;exitX=1;exitY=1;exitDx=0;exitDy=0;" parent="1" source="elOo_HZCFg8z0Z6I5Kyt-10" target="qEdgaqoT0oGhfZVgamtg-17" edge="1">
          <mxGeometry relative="1" as="geometry">
            <mxPoint x="690" y="670" as="sourcePoint" />
            <mxPoint x="850" y="670" as="targetPoint" />
          </mxGeometry>
        </mxCell>
        <mxCell id="qEdgaqoT0oGhfZVgamtg-71" value="" style="endArrow=none;html=1;rounded=0;entryX=0;entryY=0.5;entryDx=0;entryDy=0;" parent="1" target="qEdgaqoT0oGhfZVgamtg-20" edge="1">
          <mxGeometry relative="1" as="geometry">
            <mxPoint x="750" y="840" as="sourcePoint" />
            <mxPoint x="910" y="840" as="targetPoint" />
          </mxGeometry>
        </mxCell>
        <mxCell id="qEdgaqoT0oGhfZVgamtg-72" value="" style="endArrow=none;html=1;rounded=0;entryX=0;entryY=0.5;entryDx=0;entryDy=0;" parent="1" target="qEdgaqoT0oGhfZVgamtg-22" edge="1">
          <mxGeometry relative="1" as="geometry">
            <mxPoint x="770" y="840" as="sourcePoint" />
            <mxPoint x="930" y="840" as="targetPoint" />
          </mxGeometry>
        </mxCell>
        <mxCell id="qEdgaqoT0oGhfZVgamtg-73" value="" style="endArrow=none;html=1;rounded=0;entryX=0;entryY=0.5;entryDx=0;entryDy=0;" parent="1" target="qEdgaqoT0oGhfZVgamtg-21" edge="1">
          <mxGeometry relative="1" as="geometry">
            <mxPoint x="770" y="850" as="sourcePoint" />
            <mxPoint x="930" y="850" as="targetPoint" />
          </mxGeometry>
        </mxCell>
        <mxCell id="qEdgaqoT0oGhfZVgamtg-74" value="" style="endArrow=none;html=1;rounded=0;entryX=0;entryY=0.5;entryDx=0;entryDy=0;" parent="1" target="qEdgaqoT0oGhfZVgamtg-25" edge="1">
          <mxGeometry relative="1" as="geometry">
            <mxPoint x="770" y="860" as="sourcePoint" />
            <mxPoint x="930" y="860" as="targetPoint" />
          </mxGeometry>
        </mxCell>
        <mxCell id="qEdgaqoT0oGhfZVgamtg-75" value="" style="endArrow=none;html=1;rounded=0;entryX=0;entryY=0.5;entryDx=0;entryDy=0;" parent="1" target="qEdgaqoT0oGhfZVgamtg-55" edge="1">
          <mxGeometry relative="1" as="geometry">
            <mxPoint x="770" y="870" as="sourcePoint" />
            <mxPoint x="930" y="870" as="targetPoint" />
          </mxGeometry>
        </mxCell>
        <mxCell id="qEdgaqoT0oGhfZVgamtg-76" value="" style="endArrow=none;html=1;rounded=0;entryX=0;entryY=0.5;entryDx=0;entryDy=0;" parent="1" target="qEdgaqoT0oGhfZVgamtg-24" edge="1">
          <mxGeometry relative="1" as="geometry">
            <mxPoint x="770" y="880" as="sourcePoint" />
            <mxPoint x="930" y="880" as="targetPoint" />
          </mxGeometry>
        </mxCell>
        <mxCell id="qEdgaqoT0oGhfZVgamtg-77" value="Attribute" style="ellipse;whiteSpace=wrap;html=1;align=center;" parent="1" vertex="1">
          <mxGeometry x="260" y="1160" width="100" height="20" as="geometry" />
        </mxCell>
        <mxCell id="qEdgaqoT0oGhfZVgamtg-78" value="Attribute" style="ellipse;whiteSpace=wrap;html=1;align=center;" parent="1" vertex="1">
          <mxGeometry x="330" y="1180" width="100" height="20" as="geometry" />
        </mxCell>
        <mxCell id="qEdgaqoT0oGhfZVgamtg-79" value="Attribute" style="ellipse;whiteSpace=wrap;html=1;align=center;" parent="1" vertex="1">
          <mxGeometry x="220" y="1140" width="100" height="20" as="geometry" />
        </mxCell>
        <mxCell id="qEdgaqoT0oGhfZVgamtg-80" value="Attribute" style="ellipse;whiteSpace=wrap;html=1;align=center;" parent="1" vertex="1">
          <mxGeometry x="440" y="1140" width="100" height="20" as="geometry" />
        </mxCell>
        <mxCell id="qEdgaqoT0oGhfZVgamtg-81" value="Attribute" style="ellipse;whiteSpace=wrap;html=1;align=center;" parent="1" vertex="1">
          <mxGeometry x="180" y="1120" width="100" height="20" as="geometry" />
        </mxCell>
        <mxCell id="qEdgaqoT0oGhfZVgamtg-82" value="Attribute" style="ellipse;whiteSpace=wrap;html=1;align=center;" parent="1" vertex="1">
          <mxGeometry x="400" y="1160" width="100" height="20" as="geometry" />
        </mxCell>
        <mxCell id="qEdgaqoT0oGhfZVgamtg-83" value="Lo_amo" style="ellipse;whiteSpace=wrap;html=1;align=center;" parent="1" vertex="1">
          <mxGeometry x="300" y="290" width="65" height="20" as="geometry" />
        </mxCell>
        <mxCell id="qEdgaqoT0oGhfZVgamtg-84" value="branch_ID_fk" style="ellipse;whiteSpace=wrap;html=1;align=center;" parent="1" vertex="1">
          <mxGeometry x="332.5" y="270" width="95" height="20" as="geometry" />
        </mxCell>
        <mxCell id="qEdgaqoT0oGhfZVgamtg-85" value="Lo_date" style="ellipse;whiteSpace=wrap;html=1;align=center;" parent="1" vertex="1">
          <mxGeometry x="395" y="290" width="80" height="20" as="geometry" />
        </mxCell>
        <mxCell id="qEdgaqoT0oGhfZVgamtg-86" value="Lo_ID" style="ellipse;whiteSpace=wrap;html=1;align=center;" parent="1" vertex="1">
          <mxGeometry x="260" y="310" width="85" height="20" as="geometry" />
        </mxCell>
        <mxCell id="qEdgaqoT0oGhfZVgamtg-88" value="cus_ID_fk" style="ellipse;whiteSpace=wrap;html=1;align=center;" parent="1" vertex="1">
          <mxGeometry x="425" y="310" width="87.99" height="20" as="geometry" />
        </mxCell>
        <mxCell id="qEdgaqoT0oGhfZVgamtg-89" value="Lo_pay_ID" style="ellipse;whiteSpace=wrap;html=1;align=center;" parent="1" vertex="1">
          <mxGeometry x="265" y="510" width="100" height="20" as="geometry" />
        </mxCell>
        <mxCell id="qEdgaqoT0oGhfZVgamtg-90" value="Lo_pa" style="ellipse;whiteSpace=wrap;html=1;align=center;" parent="1" vertex="1">
          <mxGeometry x="395" y="510" width="100" height="20" as="geometry" />
        </mxCell>
        <mxCell id="qEdgaqoT0oGhfZVgamtg-91" value="cus_ID" style="ellipse;whiteSpace=wrap;html=1;align=center;" parent="1" vertex="1">
          <mxGeometry x="420" y="530" width="100" height="20" as="geometry" />
        </mxCell>
        <mxCell id="qEdgaqoT0oGhfZVgamtg-92" value="Lo_ID_fk" style="ellipse;whiteSpace=wrap;html=1;align=center;" parent="1" vertex="1">
          <mxGeometry x="242.5" y="530" width="90" height="20" as="geometry" />
        </mxCell>
        <mxCell id="qEdgaqoT0oGhfZVgamtg-93" value="Lo_pa_date" style="ellipse;whiteSpace=wrap;html=1;align=center;direction=west;" parent="1" vertex="1">
          <mxGeometry x="325" y="490" width="100" height="20" as="geometry" />
        </mxCell>
        <mxCell id="qEdgaqoT0oGhfZVgamtg-94" value="Attribute" style="ellipse;whiteSpace=wrap;html=1;align=center;" parent="1" vertex="1">
          <mxGeometry x="340" y="740" width="100" height="20" as="geometry" />
        </mxCell>
        <mxCell id="qEdgaqoT0oGhfZVgamtg-95" value="Attribute" style="ellipse;whiteSpace=wrap;html=1;align=center;" parent="1" vertex="1">
          <mxGeometry x="410" y="760" width="100" height="20" as="geometry" />
        </mxCell>
        <mxCell id="qEdgaqoT0oGhfZVgamtg-96" value="Attribute" style="ellipse;whiteSpace=wrap;html=1;align=center;" parent="1" vertex="1">
          <mxGeometry x="270" y="760" width="100" height="20" as="geometry" />
        </mxCell>
        <mxCell id="qEdgaqoT0oGhfZVgamtg-97" value="Attribute" style="ellipse;whiteSpace=wrap;html=1;align=center;" parent="1" vertex="1">
          <mxGeometry x="243" y="780" width="100" height="20" as="geometry" />
        </mxCell>
        <mxCell id="qEdgaqoT0oGhfZVgamtg-98" value="Attribute" style="ellipse;whiteSpace=wrap;html=1;align=center;" parent="1" vertex="1">
          <mxGeometry x="440" y="780" width="100" height="20" as="geometry" />
        </mxCell>
        <mxCell id="qEdgaqoT0oGhfZVgamtg-99" value="" style="endArrow=none;html=1;rounded=0;" parent="1" edge="1">
          <mxGeometry relative="1" as="geometry">
            <mxPoint x="320" y="330" as="sourcePoint" />
            <mxPoint x="339" y="360" as="targetPoint" />
          </mxGeometry>
        </mxCell>
        <mxCell id="qEdgaqoT0oGhfZVgamtg-100" value="" style="endArrow=none;html=1;rounded=0;" parent="1" edge="1">
          <mxGeometry relative="1" as="geometry">
            <mxPoint x="350" y="310" as="sourcePoint" />
            <mxPoint x="362" y="360" as="targetPoint" />
          </mxGeometry>
        </mxCell>
        <mxCell id="qEdgaqoT0oGhfZVgamtg-101" value="" style="endArrow=none;html=1;rounded=0;exitX=0.5;exitY=1;exitDx=0;exitDy=0;entryX=0.5;entryY=0;entryDx=0;entryDy=0;" parent="1" source="qEdgaqoT0oGhfZVgamtg-84" target="elOo_HZCFg8z0Z6I5Kyt-8" edge="1">
          <mxGeometry relative="1" as="geometry">
            <mxPoint x="380" y="330" as="sourcePoint" />
            <mxPoint x="540" y="330" as="targetPoint" />
          </mxGeometry>
        </mxCell>
        <mxCell id="qEdgaqoT0oGhfZVgamtg-102" value="" style="endArrow=none;html=1;rounded=0;exitX=0;exitY=1;exitDx=0;exitDy=0;entryX=0.68;entryY=-0.025;entryDx=0;entryDy=0;entryPerimeter=0;" parent="1" source="qEdgaqoT0oGhfZVgamtg-85" target="elOo_HZCFg8z0Z6I5Kyt-8" edge="1">
          <mxGeometry relative="1" as="geometry">
            <mxPoint x="410" y="340" as="sourcePoint" />
            <mxPoint x="400" y="350" as="targetPoint" />
          </mxGeometry>
        </mxCell>
        <mxCell id="qEdgaqoT0oGhfZVgamtg-103" value="" style="endArrow=none;html=1;rounded=0;exitX=0;exitY=1;exitDx=0;exitDy=0;" parent="1" source="qEdgaqoT0oGhfZVgamtg-88" edge="1">
          <mxGeometry relative="1" as="geometry">
            <mxPoint x="460" y="350" as="sourcePoint" />
            <mxPoint x="420" y="360" as="targetPoint" />
          </mxGeometry>
        </mxCell>
        <mxCell id="qEdgaqoT0oGhfZVgamtg-104" value="" style="endArrow=none;html=1;rounded=0;entryX=0.155;entryY=0.025;entryDx=0;entryDy=0;entryPerimeter=0;" parent="1" target="elOo_HZCFg8z0Z6I5Kyt-15" edge="1">
          <mxGeometry relative="1" as="geometry">
            <mxPoint x="310" y="550" as="sourcePoint" />
            <mxPoint x="460" y="560" as="targetPoint" />
          </mxGeometry>
        </mxCell>
        <mxCell id="qEdgaqoT0oGhfZVgamtg-105" value="" style="endArrow=none;html=1;rounded=0;entryX=0.25;entryY=0;entryDx=0;entryDy=0;exitX=0.77;exitY=1;exitDx=0;exitDy=0;exitPerimeter=0;" parent="1" source="qEdgaqoT0oGhfZVgamtg-89" target="elOo_HZCFg8z0Z6I5Kyt-15" edge="1">
          <mxGeometry relative="1" as="geometry">
            <mxPoint x="354" y="560" as="sourcePoint" />
            <mxPoint x="520" y="560" as="targetPoint" />
          </mxGeometry>
        </mxCell>
        <mxCell id="qEdgaqoT0oGhfZVgamtg-106" value="" style="endArrow=none;html=1;rounded=0;exitX=0.5;exitY=0;exitDx=0;exitDy=0;entryX=0.5;entryY=0;entryDx=0;entryDy=0;" parent="1" source="qEdgaqoT0oGhfZVgamtg-93" target="elOo_HZCFg8z0Z6I5Kyt-15" edge="1">
          <mxGeometry relative="1" as="geometry">
            <mxPoint x="380" y="560" as="sourcePoint" />
            <mxPoint x="540" y="560" as="targetPoint" />
          </mxGeometry>
        </mxCell>
        <mxCell id="qEdgaqoT0oGhfZVgamtg-107" value="" style="endArrow=none;html=1;rounded=0;exitX=0;exitY=1;exitDx=0;exitDy=0;" parent="1" source="qEdgaqoT0oGhfZVgamtg-90" edge="1">
          <mxGeometry relative="1" as="geometry">
            <mxPoint x="410" y="570" as="sourcePoint" />
            <mxPoint x="392" y="600" as="targetPoint" />
          </mxGeometry>
        </mxCell>
        <mxCell id="qEdgaqoT0oGhfZVgamtg-108" value="" style="endArrow=none;html=1;rounded=0;exitX=0;exitY=1;exitDx=0;exitDy=0;entryX=0.905;entryY=-0.075;entryDx=0;entryDy=0;entryPerimeter=0;" parent="1" source="qEdgaqoT0oGhfZVgamtg-91" target="elOo_HZCFg8z0Z6I5Kyt-15" edge="1">
          <mxGeometry relative="1" as="geometry">
            <mxPoint x="440" y="580" as="sourcePoint" />
            <mxPoint x="600" y="580" as="targetPoint" />
          </mxGeometry>
        </mxCell>
        <mxCell id="qEdgaqoT0oGhfZVgamtg-109" value="" style="endArrow=none;html=1;rounded=0;entryX=0.12;entryY=-0.025;entryDx=0;entryDy=0;entryPerimeter=0;" parent="1" target="elOo_HZCFg8z0Z6I5Kyt-11" edge="1">
          <mxGeometry relative="1" as="geometry">
            <mxPoint x="310" y="800" as="sourcePoint" />
            <mxPoint x="470" y="800" as="targetPoint" />
          </mxGeometry>
        </mxCell>
        <mxCell id="qEdgaqoT0oGhfZVgamtg-110" value="" style="endArrow=none;html=1;rounded=0;entryX=0.33;entryY=0.025;entryDx=0;entryDy=0;entryPerimeter=0;" parent="1" target="elOo_HZCFg8z0Z6I5Kyt-11" edge="1">
          <mxGeometry relative="1" as="geometry">
            <mxPoint x="350" y="780" as="sourcePoint" />
            <mxPoint x="510" y="780" as="targetPoint" />
          </mxGeometry>
        </mxCell>
        <mxCell id="qEdgaqoT0oGhfZVgamtg-112" value="" style="endArrow=none;html=1;rounded=0;entryX=0.5;entryY=0;entryDx=0;entryDy=0;exitX=0.5;exitY=1;exitDx=0;exitDy=0;" parent="1" source="qEdgaqoT0oGhfZVgamtg-94" target="elOo_HZCFg8z0Z6I5Kyt-11" edge="1">
          <mxGeometry relative="1" as="geometry">
            <mxPoint x="390" y="780" as="sourcePoint" />
            <mxPoint x="550" y="810" as="targetPoint" />
            <Array as="points" />
          </mxGeometry>
        </mxCell>
        <mxCell id="qEdgaqoT0oGhfZVgamtg-113" value="" style="endArrow=none;html=1;rounded=0;exitX=0;exitY=1;exitDx=0;exitDy=0;entryX=0.68;entryY=0.025;entryDx=0;entryDy=0;entryPerimeter=0;" parent="1" source="qEdgaqoT0oGhfZVgamtg-95" target="elOo_HZCFg8z0Z6I5Kyt-11" edge="1">
          <mxGeometry relative="1" as="geometry">
            <mxPoint x="420" y="810" as="sourcePoint" />
            <mxPoint x="420" y="810" as="targetPoint" />
          </mxGeometry>
        </mxCell>
        <mxCell id="qEdgaqoT0oGhfZVgamtg-114" value="" style="endArrow=none;html=1;rounded=0;entryX=0;entryY=1;entryDx=0;entryDy=0;" parent="1" target="qEdgaqoT0oGhfZVgamtg-98" edge="1">
          <mxGeometry relative="1" as="geometry">
            <mxPoint x="430" y="840" as="sourcePoint" />
            <mxPoint x="590" y="840" as="targetPoint" />
          </mxGeometry>
        </mxCell>
        <mxCell id="qEdgaqoT0oGhfZVgamtg-115" value="" style="endArrow=none;html=1;rounded=0;exitX=0.92;exitY=1.025;exitDx=0;exitDy=0;exitPerimeter=0;entryX=0.5;entryY=0;entryDx=0;entryDy=0;" parent="1" source="qEdgaqoT0oGhfZVgamtg-26" target="qEdgaqoT0oGhfZVgamtg-80" edge="1">
          <mxGeometry relative="1" as="geometry">
            <mxPoint x="450" y="1100" as="sourcePoint" />
            <mxPoint x="490" y="1130" as="targetPoint" />
          </mxGeometry>
        </mxCell>
        <mxCell id="qEdgaqoT0oGhfZVgamtg-116" value="" style="endArrow=none;html=1;rounded=0;entryX=0.34;entryY=-0.05;entryDx=0;entryDy=0;entryPerimeter=0;exitX=0.61;exitY=1.025;exitDx=0;exitDy=0;exitPerimeter=0;" parent="1" source="qEdgaqoT0oGhfZVgamtg-26" target="qEdgaqoT0oGhfZVgamtg-82" edge="1">
          <mxGeometry relative="1" as="geometry">
            <mxPoint x="400" y="1090" as="sourcePoint" />
            <mxPoint x="560" y="1090" as="targetPoint" />
          </mxGeometry>
        </mxCell>
        <mxCell id="qEdgaqoT0oGhfZVgamtg-117" value="" style="endArrow=none;html=1;rounded=0;exitX=0.42;exitY=1;exitDx=0;exitDy=0;exitPerimeter=0;entryX=0.5;entryY=0;entryDx=0;entryDy=0;" parent="1" source="qEdgaqoT0oGhfZVgamtg-26" target="qEdgaqoT0oGhfZVgamtg-78" edge="1">
          <mxGeometry relative="1" as="geometry">
            <mxPoint x="370" y="1140" as="sourcePoint" />
            <mxPoint x="530" y="1140" as="targetPoint" />
          </mxGeometry>
        </mxCell>
        <mxCell id="qEdgaqoT0oGhfZVgamtg-118" value="" style="endArrow=none;html=1;rounded=0;exitX=0.25;exitY=1;exitDx=0;exitDy=0;entryX=1;entryY=0;entryDx=0;entryDy=0;" parent="1" source="qEdgaqoT0oGhfZVgamtg-26" target="qEdgaqoT0oGhfZVgamtg-77" edge="1">
          <mxGeometry relative="1" as="geometry">
            <mxPoint x="350" y="1120" as="sourcePoint" />
            <mxPoint x="510" y="1120" as="targetPoint" />
          </mxGeometry>
        </mxCell>
        <mxCell id="qEdgaqoT0oGhfZVgamtg-119" value="" style="endArrow=none;html=1;rounded=0;exitX=0.79;exitY=0.15;exitDx=0;exitDy=0;exitPerimeter=0;entryX=0.15;entryY=1;entryDx=0;entryDy=0;entryPerimeter=0;" parent="1" source="qEdgaqoT0oGhfZVgamtg-79" target="qEdgaqoT0oGhfZVgamtg-26" edge="1">
          <mxGeometry relative="1" as="geometry">
            <mxPoint x="300" y="1140" as="sourcePoint" />
            <mxPoint x="351" y="1080" as="targetPoint" />
          </mxGeometry>
        </mxCell>
        <mxCell id="qEdgaqoT0oGhfZVgamtg-120" value="" style="endArrow=none;html=1;rounded=0;entryX=0;entryY=1;entryDx=0;entryDy=0;" parent="1" target="qEdgaqoT0oGhfZVgamtg-26" edge="1">
          <mxGeometry relative="1" as="geometry">
            <mxPoint x="260" y="1120" as="sourcePoint" />
            <mxPoint x="420" y="1120" as="targetPoint" />
          </mxGeometry>
        </mxCell>
        <mxCell id="qEdgaqoT0oGhfZVgamtg-121" value="cu_streatNo" style="ellipse;whiteSpace=wrap;html=1;align=center;" parent="1" vertex="1">
          <mxGeometry x="1090" y="362.5" width="90" height="20" as="geometry" />
        </mxCell>
        <mxCell id="qEdgaqoT0oGhfZVgamtg-122" value="cu_sity" style="ellipse;whiteSpace=wrap;html=1;align=center;" parent="1" vertex="1">
          <mxGeometry x="1080" y="280" width="85" height="20" as="geometry" />
        </mxCell>
        <mxCell id="qEdgaqoT0oGhfZVgamtg-123" value="cu_homeNo" style="ellipse;whiteSpace=wrap;html=1;align=center;" parent="1" vertex="1">
          <mxGeometry x="1085" y="320" width="90" height="20" as="geometry" />
        </mxCell>
        <mxCell id="qEdgaqoT0oGhfZVgamtg-124" value="cu_area" style="ellipse;whiteSpace=wrap;html=1;align=center;" parent="1" vertex="1">
          <mxGeometry x="1080" y="260" width="85" height="20" as="geometry" />
        </mxCell>
        <mxCell id="qEdgaqoT0oGhfZVgamtg-125" value="cu_current_loc" style="ellipse;whiteSpace=wrap;html=1;align=center;" parent="1" vertex="1">
          <mxGeometry x="1080" y="300" width="100" height="20" as="geometry" />
        </mxCell>
        <mxCell id="qEdgaqoT0oGhfZVgamtg-126" value="cu_main_sett" style="ellipse;whiteSpace=wrap;html=1;align=center;" parent="1" vertex="1">
          <mxGeometry x="1085" y="340" width="100" height="20" as="geometry" />
        </mxCell>
        <mxCell id="qEdgaqoT0oGhfZVgamtg-127" value="" style="endArrow=none;html=1;rounded=0;entryX=0;entryY=0.5;entryDx=0;entryDy=0;" parent="1" target="qEdgaqoT0oGhfZVgamtg-124" edge="1">
          <mxGeometry relative="1" as="geometry">
            <mxPoint x="990" y="340" as="sourcePoint" />
            <mxPoint x="1150" y="340" as="targetPoint" />
          </mxGeometry>
        </mxCell>
        <mxCell id="qEdgaqoT0oGhfZVgamtg-128" value="" style="endArrow=none;html=1;rounded=0;entryX=0;entryY=0.5;entryDx=0;entryDy=0;exitX=1;exitY=0;exitDx=0;exitDy=0;" parent="1" source="fKfA4gt4jQPloBtkc1-s-29" target="qEdgaqoT0oGhfZVgamtg-122" edge="1">
          <mxGeometry relative="1" as="geometry">
            <mxPoint x="1000" y="340" as="sourcePoint" />
            <mxPoint x="1160" y="340" as="targetPoint" />
          </mxGeometry>
        </mxCell>
        <mxCell id="qEdgaqoT0oGhfZVgamtg-129" value="" style="endArrow=none;html=1;rounded=0;entryX=0;entryY=0.5;entryDx=0;entryDy=0;exitX=0.933;exitY=0.35;exitDx=0;exitDy=0;exitPerimeter=0;" parent="1" source="fKfA4gt4jQPloBtkc1-s-29" target="qEdgaqoT0oGhfZVgamtg-125" edge="1">
          <mxGeometry relative="1" as="geometry">
            <mxPoint x="1010" y="350" as="sourcePoint" />
            <mxPoint x="1170" y="350" as="targetPoint" />
          </mxGeometry>
        </mxCell>
        <mxCell id="qEdgaqoT0oGhfZVgamtg-130" value="" style="endArrow=none;html=1;rounded=0;entryX=0;entryY=0.5;entryDx=0;entryDy=0;" parent="1" target="qEdgaqoT0oGhfZVgamtg-123" edge="1">
          <mxGeometry relative="1" as="geometry">
            <mxPoint x="1010" y="350" as="sourcePoint" />
            <mxPoint x="1170" y="350" as="targetPoint" />
          </mxGeometry>
        </mxCell>
        <mxCell id="qEdgaqoT0oGhfZVgamtg-131" value="" style="endArrow=none;html=1;rounded=0;entryX=0;entryY=0.5;entryDx=0;entryDy=0;exitX=1;exitY=1;exitDx=0;exitDy=0;" parent="1" source="fKfA4gt4jQPloBtkc1-s-29" target="qEdgaqoT0oGhfZVgamtg-126" edge="1">
          <mxGeometry relative="1" as="geometry">
            <mxPoint x="1010" y="360" as="sourcePoint" />
            <mxPoint x="1170" y="360" as="targetPoint" />
          </mxGeometry>
        </mxCell>
        <mxCell id="qEdgaqoT0oGhfZVgamtg-132" value="" style="endArrow=none;html=1;rounded=0;entryX=0;entryY=0.5;entryDx=0;entryDy=0;exitX=1;exitY=1;exitDx=0;exitDy=0;" parent="1" source="fKfA4gt4jQPloBtkc1-s-29" target="qEdgaqoT0oGhfZVgamtg-121" edge="1">
          <mxGeometry relative="1" as="geometry">
            <mxPoint x="1000" y="360" as="sourcePoint" />
            <mxPoint x="1200" y="390" as="targetPoint" />
          </mxGeometry>
        </mxCell>
      </root>
    </mxGraphModel>
  </diagram>
</mxfile>
